<?xml version="1.0" encoding="UTF-8"?>
<svg version="1.1" viewBox="0 0 1600 1600" width="1280" height="1280" xmlns="http://www.w3.org/2000/svg">
<path transform="translate(0)" d="m0 0h1600v1600h-1600v-1600z" fill="#FAFCFC"/>
<path transform="translate(593,458)" d="m0 0c6.12 0.575 11.6 1.9 17.4 3.88 0.901 0.305 1.8 0.609 2.73 0.923 18.6 6.44 36.4 14.7 53.9 23.6 0.875 0.446 1.75 0.892 2.65 1.35 2.06 1.11 3.94 2.32 5.88 3.62 4.82 2.29 8.86 1.98 14.1 1.72 14.4-0.683 25.9 3.04 38.7 9.38 0.633 0.308 1.27 0.617 1.92 0.934 9.8 4.8 18.8 10.1 27.1 17.2 1.68 1.43 3.4 2.81 5.13 4.19 6.67 5.39 12.4 11.2 18 17.7 5.24 5.23 11 6.16 18 7.34 16.5 3.07 33 9.71 45.6 21.2v2c0.849 0.29 0.849 0.29 1.71 0.586 3.24 2 4.88 4.87 6.85 8.04 0.398 0.632 0.795 1.26 1.21 1.92 6.88 11.2 8.92 22.6 6.11 35.5-2.13 7.85-6.31 15-11.9 21h-2v3c0.604 0.161 1.21 0.322 1.83 0.487 5.85 1.56 11.7 3.16 17.5 4.78 2.03 0.565 4.07 1.12 6.11 1.67 18.2 5.43 34.2 15.4 44 31.8 5.07 9.49 7.09 19.6 8.5 30.2 0.598 0.0449 1.2 0.0898 1.81 0.136 21.4 1.65 43.9 3.77 59.5 20.3 8.09 9.71 11.2 17.6 10.5 30.4-1.28 10-7.1 17.4-14.8 23.6-6.96 5.08-20.3 13.5-29.1 13.5 0.342 2.97 0.342 2.97 1 6 2.3 1.15 3.81 1.19 6.38 1.32 16.9 1.05 32.3 4.29 46.6 13.7 0.628 0.402 1.26 0.804 1.9 1.22 6.33 4.71 12.1 13.4 14.8 20.7 1.47 11.1 1.11 20.7-5.73 30-13.3 15.5-33 21.1-52.6 23.6-2.36 0.144-2.36 0.144-3.41 1.39-0.203 1.48-0.347 2.96-0.465 4.45-0.078 0.913-0.156 1.83-0.236 2.77-0.156 1.92-0.309 3.84-0.461 5.76-0.453 5.26-1.18 10-2.84 15 4.79 2.18 9.57 4.22 14.5 6.07 12.6 4.81 24.1 12 29.9 24.7 3.7 8.95 4.01 20.2 0.562 29.2-7.05 13.2-21.8 20.9-35.5 25.2-12.6 3.34-25.8 4.21-38.8 3.43-2.85 0.09-2.85 0.09-4.96 2.05-1.71 2.17-3.08 4.28-4.41 6.71-4.44 7.63-9.99 14.6-15.7 21.3-1.95 2.15-1.95 2.15-1.76 4.9 0.966 3.07 2.14 5.78 3.5 8.69 5.63 12 5.89 23.1 1.56 35.7-6.81 15.4-22.4 26.7-37.2 33.9-2.3 0.886-4.42 1.51-6.81 2.07-7.81 1.64-7.81 1.64-13.9 6.4-1.26 3.16-2.19 6.35-3.14 9.61-1.15 2.84-2.44 5.61-3.75 8.38-0.34 0.722-0.679 1.44-1.03 2.19-7.32 15.2-17.7 28.1-29.2 40.4-0.81 0.875-1.62 1.75-2.45 2.65-10.8 11.3-22.9 20.7-37.5 26.3-0.775 0.302-1.55 0.603-2.35 0.914-3.25 1.17-6.33 2.03-9.74 2.58-7.99 1.36-11.7 3.59-17.1 9.57-5.73 6.21-13.1 10.9-19.8 15.9-0.744 0.551-1.49 1.1-2.25 1.67-35.7 26.4-35.7 26.4-46.7 27.3 0.46-4.7 2.2-6.66 5.56-9.88 0.915-0.879 1.83-1.76 2.77-2.66 2.72-2.51 5.48-4.96 8.29-7.37 3.24-2.85 6.36-5.82 9.5-8.78 6.53-6.13 13.2-12 20.1-17.8 3.21-2.72 6.41-5.46 9.6-8.2 0.605-0.518 1.21-1.04 1.83-1.57 2.74-2.3 2.74-2.3 5.35-4.74 0.207-4.44 0.207-4.44-0.484-8.81-4.78-20.3 7.49-43.6 17.7-60.5 2.51-3.84 5.2-7.52 7.92-11.2 6.04-7.93 6.04-7.93 6.87-17.5-6.82-1.39-6.82-1.39-13.2 0.812-7.59 7.8-12.5 17.8-17.7 27.3-9.32 16.8-19.8 33-33.1 46.9-0.449 0.476-0.897 0.952-1.36 1.44-24.1 25.4-56.8 44.8-92.4 46.7-2.26-0.145-2.26-0.145-4.76-1.71-2.35-1.68-2.35-1.68-4.76-1.21-3.23 0.905-6.09 2.18-9.13 3.61-1.27 0.589-2.53 1.18-3.8 1.77-0.661 0.309-1.32 0.617-2 0.936-20.9 9.72-42.1 17.4-64.4 23.2-0.899 0.236-1.8 0.472-2.72 0.715-2.94 0.55-5.69 0.585-8.67 0.5-0.33-0.66-0.66-1.32-1-2 3.13-3.46 6.58-5.76 10.6-8 0.685-0.382 1.37-0.765 2.07-1.16 8.59-4.69 17.5-8.65 26.4-12.7 6.91-3.15 13.8-6.41 20.6-9.7 1.04-0.501 2.08-1 3.15-1.52 5.86-2.83 5.86-2.83 11.7-5.76 2.42-1.16 2.42-1.16 4.42-1.16-0.142-0.632-0.284-1.26-0.43-1.91-2.35-14.3 7.46-27.8 15.4-39.1 9.98-13.4 22.5-24.2 36-34 0.856-0.625 0.856-0.625 1.73-1.26 15.6-11.3 36.5-23.3 56.3-23.7 1.8-0.0406 1.8-0.0406 3.63-0.082 6.25-0.0673 12.2 0.0812 18.4 1.08-1.95-5.64-3.48-8.19-9-11-14.8-6.46-32.2-0.875-46.5 4.69-17.9 7.4-34.8 17.8-48.9 31.1-0.825 0.771-0.825 0.771-1.67 1.56-1.64 1.54-3.27 3.08-4.9 4.63-0.915 0.861-1.83 1.72-2.77 2.61-6.7 6.48-12 13.6-17.2 21.3-1.88 2.65-3.56 4.95-6.04 7.05-2.12 0.0469-2.12 0.0469-4.31-0.5-2.27-0.669-2.27-0.669-4.69-0.5-3.08 2.17-5.59 4.65-8.26 7.31-3.9 3.83-8.15 6.75-12.7 9.69-1.65 1.06-1.65 1.06-3.33 2.15-9.47 5.97-19.3 10.7-29.7 14.9-0.769 0.317-1.54 0.635-2.33 0.962-25.1 10.2-55.4 15.1-81.2 4.98-1.5-0.641-3-1.29-4.5-1.94-5.71-2.48-9.21-1.68-14.9 0.477-5.83 1.95-11.6 2.34-17.7 2.71-1.84 0.118-1.84 0.118-3.72 0.239-11.2 0.636-22.3 0.787-33.5 0.823-0.848 0.00527-1.7 0.0105-2.57 0.016-2.44 0.0118-4.88 0.00839-7.32-3.36e-4 -0.72 0.00395-1.44 0.00791-2.18 0.012-4.99-0.045-9.31-0.922-14.1-2.28v-4c5.8-2.28 11.7-2.96 17.9-3.81 2.43-0.348 4.85-0.697 7.28-1.05 1.91-0.276 1.91-0.276 3.87-0.557 6.81-0.992 13.6-2.07 20.4-3.15 9.96-1.57 19.9-3.12 29.9-4.54 3.95-0.527 3.95-0.527 7.66-1.9 0.731-2.08 0.731-2.08 1.31-4.56 4.27-14.8 16-24.5 28.7-32.4 0.645-0.408 1.29-0.815 1.95-1.23 10.6-6.63 21.5-12 33-16.8 1.44-0.615 1.44-0.615 2.91-1.24 27.2-10.9 59.1-12.3 86.1-0.758-1.67-4.15-3.25-7.46-6-11v-2c-0.583-0.289-1.17-0.577-1.77-0.875-1.37-0.691-2.74-1.4-4.09-2.12-0.624-0.33-1.25-0.66-1.89-1-0.614-0.33-1.23-0.66-1.86-1-24.5-10.3-57.4-0.655-81.4 7-0.66 0.33-1.32 0.66-2 1-0.135-0.762-0.271-1.52-0.41-2.31-2.09-10-5.98-16.2-14.2-22.4-18.4-12-40.2-15.7-61.7-15.7-2.11-0.0121-4.21-0.0617-6.32-0.112-7.79-0.0947-13.4 0.324-19.4 5.54-0.538 0.409-1.08 0.817-1.63 1.24-1.49 1.13-2.93 2.32-4.37 3.51-1.42 1.17-1.42 1.17-2.88 2.36-0.701 0.624-1.4 1.25-2.12 1.89v1c0.765-0.0693 1.53-0.139 2.32-0.21 26.8-2.26 54.2-2.23 79.7 7.21 1.11 0.403 2.22 0.807 3.37 1.22 8.71 3.38 16.4 7.85 21.6 15.8-0.13 2.54-0.13 2.54-1 5-1.73 1.31-1.73 1.31-3.98 2.29-0.828 0.379-1.66 0.757-2.51 1.15-0.89 0.392-1.78 0.785-2.7 1.19-15.3 7.19-27.2 17.4-38 30.4-6.77 7.21-6.77 7.21-12.4 7.56-1.79 0.0127-3.58-0.00249-5.37-0.0408-0.96-0.00233-1.92-0.00466-2.91-0.00706-2.03-0.00972-4.06-0.0315-6.08-0.0645-3.06-0.049-6.13-0.0615-9.19-0.0671-10.1-0.0582-19.9-0.33-29.8-2.42-0.714-0.146-1.43-0.291-2.16-0.442-15.3-3.38-29.6-9.27-40.8-20.6-5.76-5.52-11.7-5.97-19.3-6.85-21.2-2.48-58.3-8.77-73.7-25.1v-2c7.59-0.309 14.6 0.601 22 2.05 1.13 0.212 2.26 0.425 3.43 0.644 3.6 0.678 7.2 1.37 10.8 2.06 2.37 0.449 4.74 0.897 7.11 1.34 19.4 3.67 19.4 3.67 27.1 5.16 1.99 0.379 3.97 0.757 5.96 1.13 0.9 0.179 1.8 0.358 2.73 0.542 5.96 1.19 5.96 1.19 11.8 0.0672 1.24-1.43 2.47-2.87 3.61-4.38 1.98-2.3 4.31-3.81 6.84-5.45 1.85-1.27 1.85-1.27 3.55-4.18-1.12 0.0157-2.24 0.0314-3.4 0.0476-43.1 0.55-43.1 0.55-60.6-3.05-0.841-0.172-1.68-0.343-2.55-0.52-15.6-3.34-28.4-8.65-39.8-20.1-4.3-3.86-8.87-4.72-14.4-5.84-1.36-0.275-2.72-0.551-4.07-0.828-0.709-0.143-1.42-0.286-2.15-0.433-60.4-12.3-60.4-12.3-73.9-23.3v-4c6.72-3.36 17.5 0.694 24.6 2.35 6.25 1.45 12.5 2.59 18.8 3.65 7.29 1.23 14.5 2.57 21.8 4.12 12.8 3.31 12.8 3.31 25.8 3.88 1.72-1.55 1.72-1.55 3-3.69 6.44-9.26 13.7-12.6 24-16.3v-3l-3.42-0.375c-17.5-2.19-38.9-7.37-50.8-21.3-4.96-5.17-12-5.89-18.8-7.31-4.31-0.931-8.63-1.87-12.9-2.81-1.16-0.254-2.33-0.508-3.52-0.77-16-3.55-31.5-8.2-46.9-13.7-0.94-0.338-1.88-0.675-2.85-1.02-0.862-0.319-1.72-0.637-2.61-0.965-0.758-0.28-1.52-0.56-2.3-0.849-1.87-0.85-1.87-0.85-3.87-2.85 0.375-2.13 0.375-2.13 1-4 8.87-0.34 17 0.634 25.7 2.34 1.27 0.239 2.54 0.479 3.85 0.725 3.34 0.631 6.68 1.27 10 1.92 3.38 0.652 6.76 1.29 10.1 1.93 9.72 1.84 19.4 3.7 29.1 5.68 3.76 0.719 6.27 1.05 10.1 0.407 1.83-1.83 3.16-3.74 4.57-5.9 2.09-3.07 4.46-4.87 7.43-7.1 0.866-0.66 1.73-1.32 2.62-2 12.3-7.27 26.3-11.4 40.4-13l2.71-0.34c29.7-3.11 70.6-2.16 95 17.5 1.49 1.38 2.96 2.77 4.41 4.17 2.43 2.12 4.77 3.02 7.91 3.67-2.93-12.3-8.92-20.3-19.2-27.6-29.3-17.9-72.3-16.8-105-9.2-6.24 1.6-12.1 3.96-17.9 6.58-3.39 1.22-5.7 1.56-9.27 1.17l-3-2v-2c-1.21 0.0157-1.21 0.0157-2.45 0.0317-67.5 0.756-67.5 0.756-90.5-21-0.849-0.985-1.7-1.97-2.57-2.98-3.71-3.7-7.42-4.46-12.5-5.36-0.867-0.175-1.73-0.35-2.63-0.53-1.84-0.37-3.69-0.73-5.54-1.08-4.79-0.913-9.57-1.91-14.3-2.89-0.928-0.189-1.86-0.377-2.81-0.571-19-3.87-39.7-9.11-55.6-20.6l1-4c10.3 1.66 20.6 3.53 30.8 5.4 2.9 0.53 5.81 1.06 8.71 1.59 8.41 1.53 16.8 3.07 25.2 4.66 5.73 1.08 11.5 2.1 17.2 3.04 0.786 0.13 1.57 0.259 2.38 0.393 1.87 0.308 3.74 0.614 5.62 0.92 0.268-0.744 0.536-1.49 0.812-2.25 4.64-10.7 15.2-15.7 25.4-19.9 16.2-6.4 33.8-8.2 51.1-8.12 1.03 0.00273 1.03 0.00273 2.09 0.00552 29 0.128 54 4.98 77.8 22.5 2.39 1.59 3.94 2.41 6.74 2.82-2.48-9.93-8.08-18.7-16.7-24.5-1.43-0.851-2.86-1.69-4.31-2.5-2.06-1.27-4.03-2.58-6-4v-2c3.5-1.56 6.92-2.45 10.7-3.19 14.9-3.02 31-9.68 39.8-22.6 3.93-6.25 4.26-12 3.5-19.2-3.78-12.5-14.1-20.7-25-27-2.72-1.61-5.36-3.26-8-5v-2c0.709-0.095 1.42-0.19 2.15-0.288 22.1-3.02 44.4-6.19 59.4-24.6 3.11-4.46 5-8.55 4.49-14.1-3.32 1.48-5.8 3.4-8.56 5.75-24.8 19.8-62.3 22.9-92.9 19.7-21.5-2.58-43.3-7.43-59.6-22.5-0.923-1.2-1.82-2.43-2.68-3.67-0.657-0.938-0.657-0.938-1.33-1.9-0.327-0.474-0.654-0.948-0.991-1.44-12.4 1.97-24.7 4.08-37 6.58-1.08 0.218-2.16 0.437-3.27 0.662-4.4 0.894-8.8 1.79-13.2 2.71-23.8 4.95-23.8 4.95-35.5 4.05-0.33-0.66-0.66-1.32-1-2 3.16-3.68 6.45-5.26 10.9-6.81 0.664-0.235 1.33-0.47 2.01-0.712 2.35-0.827 4.7-1.65 7.05-2.48 0.771-0.271 1.54-0.541 2.34-0.82 13.6-4.76 27.4-8.58 41.4-12 1.95-0.48 3.9-0.961 5.84-1.44 15.2-3.75 15.2-3.75 22.6-5.23 2.54-0.723 3.48-1.87 4.87-4.08 5.02-6.48 12.7-9.86 19.9-13.4 0.611-0.305 1.22-0.609 1.85-0.923 3.86-1.8 6.81-2.21 11-2.2 3.17-0.466 5.29-0.879 7.4-3.4 2.62-4.19 4.58-8.7 6.61-13.2 2.31-4.73 5.4-8.98 8.36-13.3 1.65-2.79 2.37-4.77 2.75-7.95-5.97 0.758-11.8 1.98-17.7 3.25-9.43 1.99-18.9 3.84-28.4 5.56-1.18 0.219-2.36 0.438-3.58 0.663-11.6 2.07-11.6 2.07-16.4 1.52l-2-3c2.72-3.41 6.42-4.62 10.4-6.12 0.777-0.297 1.55-0.594 2.35-0.9 22.2-8.28 46.1-16.4 69.6-19.7 5.46-1.07 8.02-3.86 11.5-8.05 1.19-1.36 2.38-2.72 3.58-4.07 0.595-0.686 1.19-1.37 1.8-2.08 2.83-3.18 5.84-6.17 8.87-9.16 0.524-0.519 1.05-1.04 1.59-1.57 1.45-1.44 2.9-2.87 4.35-4.3 0.865-0.967 1.73-1.93 2.62-2.93 2.38-2.07 2.38-2.07 4.46-2.07 2.14 1.12 3.76 2.37 5.54 4 3.16 3.11 3.16 3.11 7.33 3.91 1.14-0.143 1.14-0.143 2.3-0.289 0.798-0.0993 1.6-0.199 2.42-0.301 2.79-0.388 5.56-0.827 8.33-1.32v-4c-0.534-0.135-1.07-0.271-1.62-0.41-11.1-3.21-19.1-10.1-25.4-19.6-0.851 0.437-1.7 0.874-2.58 1.32-6.09 2.59-12.7 3.37-19.2 4.49-1.45 0.256-2.9 0.512-4.35 0.768-3.05 0.538-6.11 1.07-9.16 1.6-3.97 0.686-7.93 1.38-11.9 2.09-3.13 0.554-6.26 1.1-9.39 1.65-1.49 0.261-2.98 0.523-4.47 0.787-8.64 1.52-17.2 2.77-26 3.3v-4c22.5-11.4 46.3-19.2 71.3-23.2 1.21-0.198 2.43-0.397 3.68-0.601 2.34-0.371 4.69-0.713 7.05-1.02 5.67-0.892 9.19-1.7 13-6.15 0.488-0.684 0.976-1.37 1.48-2.07 9.72-12.6 33.7-17.4 48.5-20 1.57-0.28 1.57-0.28 3.18-0.566 5.74-0.651 11.5-0.765 17.3-0.934 9.08-0.188 9.08-0.188 18.1-1.16 3.71-0.368 5.16 0.113 8.46 1.66 2.26 0.429 4.53 0.803 6.81 1.12 1.74 0.251 1.74 0.251 3.52 0.508 0.88 0.121 1.76 0.242 2.67 0.367-1.55-3.52-3.18-6.3-5.81-9.06-4.68-5.25-8.13-12.4-9.73-19.3-1.04-4.56-1.04-4.56-4.13-7.82-2.3-0.83-4.56-1.37-6.95-1.87-1.9-0.469-3.8-0.939-5.71-1.41-1.06-0.248-2.11-0.495-3.2-0.75-5.92-1.43-11.8-3.07-17.7-4.69-2.13-0.587-4.27-1.17-6.4-1.75-4.14-1.13-8.28-2.26-12.4-3.4-1.23-0.337-2.46-0.675-3.73-1.02-3.32-0.917-6.64-1.85-9.96-2.79-0.967-0.265-1.93-0.531-2.93-0.804-5.15-1.48-9.12-3.12-13.4-6.38 2-3 2-3 3.82-3.39 1.1-0.00508 1.1-0.00508 2.23-0.0103 0.832-0.00636 1.66-0.0127 2.52-0.0193 1.36 0.0211 1.36 0.0211 2.74 0.0427 1.42 0.0163 1.42 0.0163 2.86 0.033 23.3 0.512 46.3 6.44 68.6 12.8 7.44 2.04 14.1 2.93 21.2-0.438 23.7-5.09 48.5 2.01 69.8 12.1 8.77 4.02 14.6 1.91 23.4-1.3 3.63-1.06 6.44-1.6 9.86 0.227 0.639 0.494 1.28 0.987 1.94 1.5 1.09 0.819 1.09 0.819 2.19 1.65 0.762 0.589 1.52 1.18 2.31 1.78 7.57 5.66 15.2 10.6 23.6 15 0.848 0.453 1.7 0.906 2.57 1.37 7.78 4.05 15.7 7.09 24.1 9.81 0.66 0.217 1.32 0.434 2 0.657 15.3 5.01 29.1 7.35 45.2 7.53 1.12 0.0143 2.24 0.0287 3.39 0.0435 12.5-0.0759 22.3-2.18 31.3-11 2.2-2.37 3.37-3.86 3.53-7.14-0.0619-1.15-0.0619-1.15-0.125-2.32-1.15 0.524-1.15 0.524-2.32 1.06-20.1 8.22-45 6.05-65.7 0.941-0.637-0.154-1.27-0.308-1.93-0.467-26.7-6.63-51.8-19.8-71.1-39.5-0.692-0.648-1.38-1.3-2.1-1.96-4.23-4.24-5.19-7.36-6.4-13.2-1.24-3.75-1.24-3.75-3.5-6.81-3.28-1.52-6.66-2.07-10.2-2.67-1.02-0.196-2.04-0.393-3.09-0.595-3.23-0.612-6.47-1.18-9.71-1.74-2.03-0.362-4.06-0.725-6.1-1.09-6.02-1.06-12.1-2.05-18.1-3.04-34.3-5.6-34.3-5.6-40.8-10.9 2-3 2-3 5.13-3.68 3.95-0.327 7.85-0.473 11.8-0.445 0.743 0.00411 1.49 0.00822 2.25 0.0125 18.6 0.184 37 2.66 55.4 5.35 3.41 0.497 6.83 0.976 10.2 1.45 1.94 0.279 3.88 0.588 5.82 0.901 6.54 0.884 10.2 0.0163 16-3.24 13.3-7.46 29.8-4.66 44-1.85 0.688 0.132 1.38 0.264 2.08 0.399 18.6 3.6 35.7 10 52.3 19.1 1.08 0.575 2.15 1.15 3.26 1.74 7.24 4.02 13.5 8.78 19.7 14.3 0.636 0.54 1.27 1.08 1.93 1.64 6.61 6.03 11.4 14.4 15.6 22.2 2.14 3.16 4.38 3.94 8.05 4.79 0.943 0.157 1.89 0.314 2.86 0.476 1.02 0.174 2.05 0.348 3.11 0.527 1.06 0.174 2.13 0.348 3.22 0.527 1.08 0.182 2.16 0.364 3.27 0.551 2.66 0.447 5.32 0.888 7.98 1.32 0.606 2.34 0.606 2.34 1 5-1.7 2.54-1.7 2.54-4.12 5.19-7.29 8.39-11.3 16.4-11.1 27.6 0.96 11.6 7.62 20.1 15.9 27.8 3.66 3.05 7.58 5.7 11.6 8.31 0.594 0.394 1.19 0.788 1.8 1.19 3.31 2.11 6.1 3.47 10 3.93-4.57-6.77-4.57-6.77-9.69-13.1-7.48-9.3-8.31-19.3-7.31-30.9 1.7-8.72 5.85-15.9 11-23 0.473-0.659 0.946-1.32 1.43-2 10.4-13.3 30.7-21.9 47.1-24.7 0.727-0.13 1.45-0.259 2.2-0.393 1.76-0.313 3.53-0.618 5.3-0.92-11.7-5.83-31.4 0.405-43 4-4.41 1.47-8.73 3.14-13 5v-3c-0.99-0.33-1.98-0.66-3-1-1.89-2.36-3.62-4.69-5.31-7.19-0.735-1.08-0.735-1.08-1.48-2.18-4.36-6.57-7.52-13.2-10.2-20.6-0.326-0.882-0.652-1.76-0.988-2.67-2.13-6.35-2.68-12.7-3.01-19.3-0.714-0.274-1.43-0.548-2.16-0.83-2.83-1.17-5.51-2.48-8.23-3.89-1.03-0.534-2.06-1.07-3.12-1.62-1.09-0.568-2.18-1.14-3.3-1.72-1.13-0.587-2.25-1.17-3.41-1.78-6.66-3.48-13.3-7.03-19.8-10.8-3.84-2.2-7.71-4.34-11.6-6.44-1.47-0.797-1.47-0.797-2.98-1.61-1.92-1.04-3.85-2.07-5.78-3.1-5.16-2.78-9.94-5.73-14.6-9.25 0.66-1.32 1.32-2.64 2-4z" fill="#000002"/>
<path transform="translate(1155,240)" d="m0 0c16.6 2.48 34 19.7 46.1 30.5 3.84 3.36 5.35 3.57 10.3 3.71 6.98 0.535 11.8 3 17.6 6.81 1.01 0.665 1.01 0.665 2.04 1.34 12.2 8.64 22.7 19.5 30 32.7v2c1.65 0.33 3.3 0.66 5 1 0.0928-1.21 0.0928-1.21 0.188-2.44 1.08-4.72 3.32-10.1 6.81-13.6 0.533-5.97-0.865-9.83-3.38-15.1-0.527-1.14-0.527-1.14-1.06-2.31-0.765-1.66-1.54-3.31-2.31-4.96-1.79-3.82-3.54-7.66-5.29-11.5-0.873-1.91-1.75-3.83-2.63-5.74-5.68-12.4-5.68-12.4-5.33-18.4 3.02 1.31 4.63 2.45 6.41 5.21 0.641 0.987 0.641 0.987 1.29 1.99 0.448 0.716 0.896 1.43 1.36 2.17 0.473 0.745 0.946 1.49 1.43 2.26 3.66 5.84 7.1 11.8 10.4 17.8 0.448 0.803 0.896 1.61 1.36 2.43 2.64 4.85 4.81 9.7 6.68 14.9 2.3 4.98 6.74 8.21 11 11.5 8.08 6.73 13 16.8 16.8 26.5 3.39 8.59 6.51 15.5 13.4 21.9 3.7 4.46 4.11 10.1 4.85 15.7 2.77 20.5 9.36 45.9 25.1 60.6 6.88 5.17 14.4 9.69 23 11-2.28-5.67-5.48-8.34-10.1-12-7.41-6.16-12.4-12.5-16.9-21-0.319-0.607-0.638-1.21-0.967-1.84-7.52-14.7-16.2-38.6-11.2-55 2.62-6.66 2.62-6.66 4.14-8.17 1.05-8.3-0.73-13.9-5-20.9-0.5-0.864-0.999-1.73-1.51-2.62-1.47-2.52-2.97-5.02-4.49-7.51-0.404-0.665-0.809-1.33-1.23-2.01-1.67-2.72-3.35-5.44-5.05-8.15-6.73-11.1-6.73-11.1-6.73-16.8 6.07 0.856 9.43 6.45 13 11 4.97 6.64 9.62 13.5 13.7 20.7 5.73 10 10.6 15.8 20.3 22.3 16.3 13.4 26.9 39.3 29 60 0.158 3.83 0.185 7.66 0.188 11.5 0.0122 1.01 0.0245 2.01 0.0371 3.05 0.0137 6.96-0.269 12.5-4.22 18.4 0.471 3.66 2.31 6.61 4.06 9.8 1.15 2.7 1.54 5.3 1.94 8.2-0.99 0.0864-1.98 0.173-3 0.262-8.49 0.854-15.7 1.73-21.5 8.49-5.33 7.57-6.52 17.2-4.98 26.2 0.165 0.681 0.33 1.36 0.5 2.06 0.99 0.33 1.98 0.66 3 1 0.0619-0.804 0.124-1.61 0.188-2.44 1.93-8.45 6.67-14.7 13.8-19.6 9.44-5.22 18.3-4.99 28.6-2.26 6.58 2.41 12.6 5.91 18.7 9.37 1.87 1.03 1.87 1.03 4.71 1.89-4.94-6.3-10.3-10.7-17-15-1.71-1.15-3.42-2.29-5.12-3.44-1.29-0.855-2.58-1.71-3.88-2.56 2-10.9 5.74-23 14.6-30.3 1.59-1.56 1.59-1.56 1.58-3.67-0.97-7.34-2.44-14.5-4.05-21.8-0.518-2.37-1.04-4.74-1.55-7.11-0.803-3.66-1.61-7.32-2.43-11-0.274-1.24-0.548-2.47-0.831-3.74-0.375-1.67-0.375-1.67-0.758-3.37-0.496-2.77-0.655-5.25-0.546-8.05 1.8 0.105 1.8 0.105 4 1 1.34 2.13 2.29 4.01 3.25 6.31 0.292 0.684 0.585 1.37 0.886 2.07 5.07 12.4 8.67 25.8 11.6 38.9 1.36 6.05 2.63 10.1 6.69 14.8 12.9 16.2 13.8 38.9 12.6 58.9-0.262 1.68-0.525 3.36-0.789 5.05-0.631 5.84 1.48 9.97 4.1 15.1 6.35 12.8 9.53 26.6 5.75 40.9-2.59 6.15-7.47 11.9-13.2 15.3-5.99 2.24-12.5 2.43-18.8 2.74 0.641 4.2 2.09 7.6 3.88 11.4 5.83 13.2 8.95 28.3 4.18 42.3-1.46 3.15-3.34 5.74-5.55 8.39-1.73 2.18-3.11 4.48-4.5 6.89 0.447 0.594 0.895 1.19 1.36 1.8 7.2 9.87 11.8 19.1 12 31.4 0.0561 1.24 0.0561 1.24 0.113 2.5 0.106 7.47-2.45 11.9-7.38 17.4-4.39 3.43-7.74 4.73-13.3 4.36-8.52-1.41-16.3-4.4-23.8-8.5-1.87-1.1-1.87-1.1-3.93-0.953 0.506 5.03 2.1 8.14 4.81 12.4 5.81 9.57 10 21.8 7.67 33.1-1.97 5.7-3.79 10.9-9.17 14.2-7.43 3.06-16.5 2.31-24.1-0.137-6.89-2.87-12.6-7.55-18.4-12.2-1.9-1.53-1.9-1.53-4.8-1.19-3.47 1.06-5.28 2.65-8.06 4.94-3.31 1.25-3.31 1.25-6 2 0.383 4.35 0.83 8.42 2.06 12.6 2.14 8.08 2.4 18.7-0.859 26.5-2.63 4.09-5.65 6.23-10.2 7.88-13.7 2.47-23.4-2.53-34.7-9.74-5.83-4.19-9.99-9.56-14.3-15.3-1.02-1.25-1.02-1.25-3.18-1.07-3.07 0.0915-6.13 0.198-9.2 0.319-1.07 0.0271-2.13 0.0541-3.23 0.082-1.02 0.04-2.05 0.0799-3.1 0.121-0.941 0.0325-1.88 0.0651-2.85 0.0986-2.84 0.522-3.69 1.2-5.44 3.45-1 1.77-1.96 3.56-2.88 5.38-3.83 7.14-7.34 10.9-15.1 13.6-10.1 2.47-21.5 1.34-31-3-1.71-1.25-3.42-2.51-5.12-3.78-4.51-2.96-7.12-3.62-12.5-2.81-2.38 0.515-4.75 1.07-7.11 1.65-18.3 3.83-36.1 4.97-54.3-0.0625-1.56-0.383-1.56-0.383-3.15-0.773-5.81-1.63-9.48-3.64-14-7.66-8.47-6.78-19-7.23-29.5-8.95-5.46-0.984-10.8-2.33-16.2-3.74-0.945-0.242-1.89-0.484-2.86-0.733-4.72-1.25-9.25-2.46-13.4-5.14-0.875-2.19-0.875-2.19-1-4 9.81-0.338 19.3 1.34 28.9 3.02 1.57 0.271 1.57 0.271 3.17 0.548 2.08 0.361 4.16 0.73 6.24 1.11 9.31 1.63 9.31 1.63 18.7 1.32 2.9-2.15 2.9-2.15 5-5 7.26-6.64 16.2-9.71 25.6-11.7 0.947-0.207 1.89-0.414 2.87-0.628 8.12-1.72 16.2-2.89 24.5-3.68-0.66-2.64-1.32-5.28-2-8-0.866 0.116-1.73 0.232-2.62 0.351-3.28 0.438-6.57 0.871-9.85 1.3-1.41 0.186-2.82 0.373-4.22 0.562-35.1 4.7-69.3 5.28-98.9-17.2-2.9-2.47-5.38-5.12-7.77-8.09-4.7-5.64-9.2-8.48-15.8-11.5-7.29-3.51-14.3-7.31-21.1-11.6-0.761-0.474-1.52-0.949-2.31-1.44-5.12-3.28-10.4-6.81-14.4-11.4v-3c9.79 2.35 18.5 6.97 27.4 11.5 14.7 8.46 14.7 8.46 30.6 9.55 2.28-1.31 2.28-1.31 4.44-2.94 10.4-7.11 21.4-5.62 33.3-3.51 18.8 3.76 37.1 10.1 51.2 23.4 1.38 1.31 1.38 1.31 2.8 2.64 2.2 2.36 2.2 2.36 2.2 4.36 1.98 0.66 3.96 1.32 6 2-0.948-9.09-4.3-15.7-11.1-21.9-9.94-7.48-22.8-13.3-34.9-16.1-1.13-0.264-2.27-0.529-3.43-0.801-10.9-2.44-20.8-3.36-32-2.9-6 0.117-8.65-0.731-13.6-4.3-3.3-1.08-6.68-1.79-10.1-2.56-18.5-4.69-34.4-14.2-48.9-26.4-0.904-0.748-1.81-1.5-2.74-2.27-5.44-4.94-8.53-10.5-11.6-17.1-0.563-1.21-1.13-2.42-1.7-3.62-0.337-0.711-0.673-1.42-1.02-2.16-3.15-6.18-7.21-10.4-12.4-15-1.47-1.33-2.93-2.67-4.4-4.01-0.711-0.646-1.42-1.29-2.15-1.96-4.97-4.59-9.61-9.35-13.9-14.6-0.749-0.911-1.5-1.82-2.27-2.76-2.51-3.34-3.92-5.34-3.92-9.55 6.6 0.0932 9.8 4.05 14.2 8.44 1.41 1.38 2.82 2.75 4.23 4.12 0.925 0.917 0.925 0.917 1.87 1.85 1.83 1.78 1.83 1.78 4.71 3.59v2c0.81 0.307 0.81 0.307 1.64 0.621 3.88 2.26 6.7 5.79 9.68 9.12 2.84 3 4.29 4.15 8.42 5.22 3.26 0.326 3.26 0.326 5.64-1.4 6.51-3.87 14.9-1.19 21.8 0.458 23.3 6.07 47.4 22.2 59.8 43 1.55 2.91 2.82 5.87 4.03 8.93h4c-0.0529-13.4-6.24-24-15.4-33.5-4.5-4.27-9.66-7.78-14.8-11.2-1.17-0.809-2.32-1.65-3.45-2.51-4.76-3.64-9.77-5.78-15.3-7.91-0.864-0.342-1.73-0.684-2.62-1.04-9.07-3.55-17.2-5.23-26.9-5.63-8.27-0.605-12.6-4.17-18.2-10-4.99-6.09-9.5-12.2-13.2-19.1-0.451-0.799-0.902-1.6-1.37-2.42-3.59-6.68-6.99-14.4-6.46-22.1 0.563-8.65-2.12-14.7-6.19-22.1-1.78-3.26-3.48-6.56-5.18-9.86-0.335-0.646-0.671-1.29-1.02-1.96-2.78-5.4-5.16-10.9-7.23-16.6-0.275-0.748-0.551-1.5-0.834-2.27-1.27-3.65-2.04-6.8-1.73-10.7 1.78 0.18 1.78 0.18 4 1 1.72 2.13 1.72 2.13 3.5 5.12 0.332 0.553 0.664 1.11 1.01 1.68 3.98 6.79 7.51 13.8 11 20.9 5.64 11.6 5.64 11.6 15.5 19.3 2.66 0.515 5.29 0.729 8 1-3.23-5.19-6.72-9.9-10.8-14.5-10.2-11.8-19.1-26.7-20.2-42.5l0.426-3.77c0.00949-6.69-3.44-12.3-6.44-18.1-1.77-3.43-3.47-6.88-5.18-10.3-0.335-0.674-0.671-1.35-1.02-2.04-2.64-5.34-5.06-10.7-7.23-16.3-0.275-0.688-0.551-1.38-0.834-2.08-1.47-3.91-1.99-7.19-1.73-11.4h3c1.54 1.97 2.83 3.87 4.12 6 0.392 0.627 0.784 1.25 1.19 1.9 2.85 4.62 5.58 9.31 8.25 14 0.377 0.66 0.754 1.32 1.14 2 1.89 3.36 3.62 6.72 5.15 10.3 3.22 7.49 3.22 7.49 9.45 12.5 3.56 1.01 7.05 1.68 10.7 2.28 1.8 0.544 3.6 1.12 5.38 1.75 1.2 0.413 2.39 0.825 3.62 1.25-0.315-0.811-0.629-1.62-0.953-2.46-0.9-2.33-1.79-4.66-2.68-6.99-0.799-2.08-1.62-4.15-2.48-6.2-1.97-4.85-3.03-9.25-3.56-14.5-1.52-13.8-7.73-25.4-13.8-37.7-2.09-4.31-4.03-8.67-5.87-13.1-0.283-0.652-0.567-1.3-0.858-1.98-1.59-3.85-2.1-6.99-1.83-11.1 1.87 0.31 1.87 0.31 4 1 1.68 2.38 3.1 4.65 4.5 7.19 0.424 0.741 0.849 1.48 1.29 2.25 2.52 4.43 4.95 8.92 7.36 13.4 0.527 0.98 1.05 1.96 1.6 2.97 1.03 1.92 2.05 3.85 3.06 5.78 4.4 8.48 4.4 8.48 12.2 13.5 1.33 0.317 2.67 0.629 4 0.938 13.6 3.56 21.9 9.45 32 19 0.764 0.7 1.53 1.4 2.32 2.12 15.6 14.8 26.3 35.3 27.7 56.9 1.98 0.33 3.96 0.66 6 1 0.834-26.3-9.92-46.6-27.7-65.8-5.32-5.23-11.2-9.53-17.4-13.6-5.43-3.76-9.05-8.29-12.9-13.6-0.719-0.98-1.44-1.96-2.18-2.97-20.7-28.9-20.7-28.9-19.5-45.1 0.081-7.97-2.94-13.5-6.75-20.3-1.3-2.44-2.57-4.89-3.85-7.34-0.318-0.609-0.637-1.22-0.965-1.85-3.09-5.97-5.69-12.1-8.12-18.4-0.374-0.946-0.749-1.89-1.13-2.87-1.63-4.29-2.68-7.56-2.49-12.2 8.16 3.51 12 13.3 16 20.8 0.523 0.968 1.05 1.94 1.59 2.93 3.22 5.99 6.34 12 9.23 18.2 1.25 2.26 2.1 3.62 4.18 5.14 3.07 0.875 3.07 0.875 6.56 1.44 10.7 2.14 18.2 5.41 26.4 12.6 0.938 0.794 1.88 1.59 2.84 2.41 16.2 14.1 29.7 32.8 32.2 54.6 0.134 3.34 0.13 6.66 0 10 1.98 0.33 3.96 0.66 6 1 1.02-5.02 1.12-9.79 1.06-14.9-0.00677-1.18-0.00677-1.18-0.0137-2.38-0.0117-1.92-0.0296-3.83-0.0488-5.75 1.56-0.742 1.56-0.742 4-1 2.47 1.2 4.69 2.43 7 3.88 7.22 4.43 12.1 5.31 20.4 5.31 0.846 0.0122 1.69 0.0245 2.56 0.0371 6.32 0.138 6.32 0.138 12-2.22 3.66-5.91 3.36-11.6 3.19-18.4-0.0135-1.02-0.0271-2.04-0.041-3.08-0.0351-2.49-0.0843-4.99-0.146-7.48 3.68 0.782 5.21 1.94 7.88 4.62 10.9 9.84 22 12.5 36.1 13.4-0.692-2.5-0.692-2.5-2-5-1.88-0.929-1.88-0.929-4.19-1.25-9.76-2.5-19.5-8.59-26.3-16.1-1.7-1.86-3.54-3.43-5.47-5.05-11.8-10.3-19.7-23-25.1-37.6-0.367-0.918-0.735-1.84-1.11-2.78-1.34-4.85-1.21-9.67-1.19-14.7-0.107-4.13-0.253-5.99-2.9-9.31-1.38-1.1-1.38-1.1-2.8-2.23-0.865-0.755-1.73-1.51-2.62-2.29-0.929-0.771-1.86-1.54-2.82-2.34-0.768-0.638-0.768-0.638-1.55-1.29-4.56-3.77-9.23-7.39-13.9-11-5.26-4.12-10.2-8.5-15.1-13.1 0.66-0.99 1.32-1.98 2-3 17.1 2.81 37.9 20.9 50 33 1.98 0.274 3.96 0.519 5.94 0.75 7.86 1.15 13.8 3.86 20.2 8.56 3.75 2.2 6.62 2.44 10.9 1.69 0.908-0.495 1.82-0.99 2.75-1.5 4.96-2.29 9.87-1.73 15.2-1.5-2.18-4.2-4.53-6.41-8.38-9.12-4.7-3.43-9.31-6.93-13.8-10.6-0.564-0.447-1.13-0.895-1.71-1.36-2.55-2.12-3.98-3.51-4.97-6.72-0.0451-0.717-0.0902-1.43-0.137-2.17 5.02 0.505 8.13 2.03 12.3 4.81 0.593 0.392 1.19 0.785 1.8 1.19 10.3 6.85 20.6 13.8 30 21.8 3.69 2.39 7.98 2.34 12.3 2.42 1.51 0.0425 1.51 0.0425 3.05 0.0859 2.11 0.0523 4.22 0.0965 6.34 0.133 1.01 0.0309 2.01 0.0619 3.05 0.0938 1.37 0.0297 1.37 0.0297 2.78 0.0601 2.8 0.491 3.7 1.16 5.37 3.42 0.555 2.56 0.555 2.56 0.875 5.44 0.707 4.56 0.707 4.56 3.56 8.19 2.57 1.47 2.57 1.47 5.56 2.38-0.144-0.571-0.289-1.14-0.438-1.73-1.43-6.27-1.61-11.9-1.14-18.3-0.578-4.12-2.28-5.31-5.42-7.98-0.972-0.851-1.94-1.7-2.95-2.58-1.06-0.893-2.12-1.78-3.18-2.67-0.568-0.478-1.14-0.956-1.72-1.45-4.42-3.71-8.89-7.37-13.4-11-4.96-4.06-9.87-8.17-14.8-12.3 0.33-1.32 0.66-2.64 1-4z" fill="#000002"/>
<path transform="translate(1354,842)" d="m0 0c0.732 0.566 1.46 1.13 2.22 1.71 4.32 2 8.17 0.92 12.8 0.285 3.5-0.295 7-0.493 10.5-0.688 0.873-0.0599 1.75-0.12 2.64-0.182 11.1-0.598 20.5 1.87 29.9 7.87 2.7 2.44 4.93 5.01 7 8 0.55 0.712 1.1 1.42 1.67 2.16 1.92 4.1 1.69 7.81 1.58 12.3-0.00516 0.833-0.0103 1.67-0.0156 2.53-0.0565 4.46-0.499 8.63-1.23 13 0.33 0.66 0.66 1.32 1 2 0.543-0.205 1.09-0.41 1.64-0.621 0.715-0.269 1.43-0.539 2.17-0.816 1.06-0.4 1.06-0.4 2.14-0.809 13.7-5.06 27.7-1.28 40.5 4.34 5.77 3.06 8.86 8.05 11.5 13.9 0.66 2.81 0.66 2.81 1 5 1.07-0.349 2.15-0.699 3.25-1.06 1.44-0.46 2.87-0.92 4.31-1.38 0.704-0.23 1.41-0.46 2.13-0.697 11.3-3.6 24.2-4.98 35.3 0.135 4.88 3.09 9.37 7.34 11 13 0.933 7.81 1.13 15.1-3.29 21.9-2.77 3.45-5.73 6.69-8.82 9.86-1.84 2.21-2.51 3.46-2.89 6.26 4.5-0.523 8.74-1.43 13.1-2.56 10.7-2.48 21-2.81 30.9 2.56 5.87 4.32 10.2 10.2 11.4 17.4 0.536 9.12-3.84 14.9-9.54 21.6-4.75 5.12-10.1 9.01-15.9 12.9-1.77 1.77-1.17 4.29-1.19 6.69-0.0142 1.04-0.0284 2.07-0.043 3.14 0.243 3.35 1.04 6.05 2.23 9.18 0.92-0.0464 1.84-0.0928 2.79-0.141 10.5-0.299 21.7 0.127 30.3 6.95 5.31 5.45 7.13 9.46 7.5 17.1-0.201 7.02-2.11 10.9-6.62 16.1-0.701 0.99-1.4 1.98-2.12 3-7.79 8.94-18.4 14.5-29.6 17.8-2.45 1-2.45 1-3.16 3.53-0.427 3.22-0.799 6.43-1.07 9.67-0.119 1.18-0.237 2.37-0.359 3.59-0.35 6.21-0.351 10.4 3.67 15.3 0.637 0.703 1.27 1.41 1.93 2.13 4.78 5.43 5.31 11.8 5.1 18.8-1.66 15.5-10.4 25.9-22.1 35.5-2.94 3.58-2.72 6.24-2.39 10.6 0.748 21-6.79 42.9-20.1 59.2-2.38 2.52-4.96 4.51-7.83 6.44-5.14 3.83-8.01 8.03-10.7 13.7-4.06 8.05-8.89 15.5-13.9 23-0.725 1.08-1.45 2.17-2.2 3.28-3.61 5.27-6.89 9.75-12.1 13.5-1.08-3.27-1.1-4.75 0.16-8 0.621-1.19 1.26-2.38 1.9-3.56 0.73-1.4 1.46-2.81 2.19-4.21 0.423-0.803 0.846-1.61 1.28-2.43 2.72-5.16 5.41-10.3 8.06-15.5 0.962-1.87 1.94-3.73 2.92-5.59 0.595-1.16 1.19-2.33 1.8-3.53 0.811-1.56 0.811-1.56 1.64-3.15 1.23-3.53 1.09-5.44 0.0447-9-1.25-1.47-2.5-2.95-3.79-4.39-6.55-8.71-3.24-23.9-1.86-33.8 0.684-4 1.75-7.67 3.05-11.5 1-3.79 0.786-7.36 0.598-11.3-2.95 0.169-2.95 0.169-6 2-5.52 9.9-6.87 22.8-8.68 33.9-4.32 25.7-15.6 50.7-37 66.9-3.93 2.62-7.94 4.42-12.3 6.19-11.7 4.86-19.3 13.4-28.1 22.3-4.7 4.73-9.48 9.23-14.7 13.4-0.556 0.446-1.11 0.893-1.68 1.35-3.1 2.38-5.6 3.67-9.5 4.08-0.33-0.99-0.66-1.98-1-3 1.15-1.76 1.15-1.76 2.94-3.69 0.648-0.705 1.3-1.41 1.96-2.14 2.67-2.77 5.4-5.49 8.14-8.19 1.84-1.87 3.56-3.8 5.27-5.8 3.86-4.51 8.09-8.62 12.3-12.8 2.81-2.89 4.28-4.47 4.61-8.54-0.203-3.14-0.568-4.89-1.5-7.75-3.64-16.1 8.67-35.6 16.3-48.8 9.7-15.4 21.9-27 39.9-31.3v-4c-13.6 0.0438-22.9 4.29-32.7 13.7-12.3 12.5-21.9 27.4-27.8 44-3.54 10-8.61 17.5-15.3 25.7-1.61 2.05-3 4.19-4.36 6.4-11.1 17.1-31.4 34.5-51.5 39.6-3.75 0.728-7.29 0.764-11.1 0.465-5.53 0.527-10.4 3.78-15.1 6.54-8.05 4.7-16.3 8.65-24.9 12.2-1.02 0.429-2.03 0.859-3.08 1.3-5.12 2.1-9.71 3.7-15.2 4.14-0.33-0.66-0.66-1.32-1-2 4-4.44 8.3-7.16 13.5-10.1 0.816-0.473 1.63-0.947 2.47-1.43 4.57-2.63 9.17-5.09 13.9-7.39 10-4.39 10-4.39 16.4-12.5 0.139-3.51 0.139-3.51-0.211-7.04-0.307-12.8 12.5-26.1 20.7-35 10.6-10.3 23.9-20.3 38.2-24.6 0.603-0.199 1.21-0.397 1.83-0.602 3.3-0.605 6.58-0.502 9.92-0.461 0.697 0.00451 1.39 0.00902 2.11 0.0137 1.71 0.0117 3.42 0.0297 5.14 0.0488-1.98-3.66-1.98-3.66-5.06-6.31-11.6-2.72-23.9 1.18-33.9 7.31-5.6 3.68-11.1 7.39-16.3 11.7-2.73 2.27-2.73 2.27-4.86 3.21-2.88 1.63-4.07 4.31-5.88 7.06-1.47 1.97-2.95 3.93-4.44 5.88-6.51 8.55-6.51 8.55-11 18.2-4.01 11.6-4.01 11.6-7.88 14.9-3.2 1.41-6.29 2.2-9.69 3-1.75 0.526-3.51 1.06-5.26 1.6-14.4 4.28-32.5 8.53-46.7 1.4-6.59-0.462-12.7 0.578-19.1 1.79-8.24 1.52-16.5 2.41-24.9 3.21-1.03 0.105-1.03 0.105-2.07 0.212-1.91 0.193-3.83 0.366-5.74 0.538-1.08 0.098-2.16 0.196-3.27 0.297-3.11-0.05-5.13-0.709-7.92-2.05v-2c8.36-2.37 16.7-4.4 25.2-5.92 5.1-0.918 10.1-2.07 15.1-3.4 2.53-0.637 5.05-1.1 7.62-1.55 4.25-0.949 6.49-2.5 9.06-6.12 0.395-2.32 0.736-4.66 1-7-1.16 0.543-2.32 1.09-3.52 1.64-8.7 4.01-17 7.58-26.5 9.36-0.947 0.202-1.89 0.405-2.87 0.613-10.8 2.12-21.5 3.1-31.6-1.73-2.84-0.988-4.6-0.968-7.57-0.633-0.966 0.109-1.93 0.218-2.93 0.33-4.05 0.559-8.07 1.23-12.1 1.93-10 1.72-19.8 2.89-30 2.93-0.979 0.00975-1.96 0.0195-2.97 0.0295-5.11-0.0628-5.11-0.0628-7.03-0.467-0.99-1.49-0.99-1.49-2-3 3.7-2.49 6.7-3.54 11.1-4.21 1.19-0.19 2.37-0.379 3.59-0.575 1.89-0.292 1.89-0.292 3.81-0.589 2.62-0.438 5.23-0.879 7.84-1.32 1.29-0.22 2.59-0.439 3.92-0.666 1.23-0.21 2.47-0.419 3.74-0.635 1.1-0.183 2.2-0.365 3.33-0.553 10.9-1.38 10.9-1.38 19.9-6.85 1.24-2.52 2-4.9 2.75-7.6 1.32-1.35 2.64-2.69 4-4v-4c-1.27 0.0954-2.54 0.191-3.85 0.289-26.7 1.8-26.7 1.8-33.7-3.05-0.813-0.407-1.63-0.815-2.46-1.23-2.96 1.23-2.96 1.23-6 3-16.2 3.3-33.5 3.22-50 3-0.33-0.66-0.66-1.32-1-2 2.99-1.03 5.99-2.03 9-3 0.901-0.302 1.8-0.603 2.73-0.914 11.9-3.71 24.2-5.51 36.5-7.58 2.3-0.418 4.54-0.905 6.8-1.51 0.247-1.2 0.495-2.39 0.75-3.62 1.03-4.09 2.69-6.99 5.25-10.4 0.572-0.782 1.14-1.56 1.73-2.37 2.58-2.99 5.43-5.25 8.64-7.5 0.614-0.433 1.23-0.865 1.86-1.31 10.7-7.39 22.3-12.2 34.8-15.8 1.59-0.481 1.59-0.481 3.2-0.973 13.1-3.55 26.9-3.28 39.8 0.973-2.27-5.11-4.14-7.87-9.41-9.95-21-5.86-42.9 1.99-61.8 11.6-6.74 3.89-13.1 8.64-18.6 14.2-4.24 2.85-7.94 3.06-12.9 3.66-3.88 0.616-7.06 1.89-10.6 3.46-9.36 3.76-18.5 4.52-28.5 4.38-1.76 0.00483-1.76 0.00483-3.56 0.00977-8.76-0.0544-8.76-0.0544-13.1-1.4-5.55-1.46-10.8-0.556-16.5 0.082-1 0.113-1 0.113-2.03 0.227-5.95 0.672-11.9 1.38-17.8 2.12-9.09 1.12-18 1.96-27.1 1.65v-3c5.4-2.13 10.6-3.76 16.3-4.97 0.764-0.169 1.53-0.337 2.32-0.511 2.42-0.532 4.84-1.06 7.26-1.58 1.61-0.354 3.23-0.709 4.84-1.06 1.57-0.344 3.14-0.689 4.71-1.03 0.757-0.167 1.51-0.335 2.29-0.507 4.08-0.892 8.15-1.64 12.3-2.29 3.36-0.611 3.36-0.611 5.61-3.14 0.192-0.833 0.384-1.67 0.582-2.52 4.13-13.2 18.4-22 30-28.4 5.7-2.88 11.8-4.89 17.8-6.93 1.01-0.361 2.02-0.722 3.07-1.09 14.4-4.46 29.5-3.92 43.9 0.0938-1.01-4.14-1.01-4.14-3.59-7.36-0.629-0.275-1.26-0.549-1.91-0.832-0.703-0.311-1.41-0.621-2.13-0.941-3.4-1.25-6.86-2.25-10.4-3.16-2-0.711-2-0.711-3-2.71 2.52-2.66 4.84-4.9 7.94-6.88 5.63-3.9 9.43-8.8 12.1-15.1 0.508-3.68 0.508-3.68 0.438-7.5 0.0193-1.27 0.0387-2.54 0.0586-3.84-0.586-4.32-1.66-6.37-4.5-9.66-4.34-2.79-8.85-3.8-13.9-4.69-0.688-0.13-1.38-0.259-2.09-0.393-1.68-0.315-3.36-0.618-5.04-0.92v-4c0.762-0.329 1.52-0.657 2.31-0.996 10.4-4.78 18.7-11.5 23.7-22 1.15-3.69 1.07-7.14 1-11h-4c-0.186 0.804-0.371 1.61-0.562 2.44-5.88 14.6-21.8 23.2-35.4 29.6-12.4 5.03-25.3 7.36-38.7 7.38-0.98 0.0245-1.96 0.049-2.97 0.0742-4.84 0.0195-8.36-0.165-12.6-2.6-3.04-1.73-3.53-1.88-7.24-1.41-4.09 1.82-7.67 3.99-11.4 6.5-1.5 0.99-2.99 1.98-4.49 2.97-1.54 1.03-3.09 2.06-4.63 3.09-2.99 1.99-5.99 3.97-9 5.94-1 0.672-1 0.672-2.03 1.36-4.78 3.14-9.69 5.52-15 7.71 0.42-5.06 1.52-7.11 5.38-10.4 0.904-0.768 1.81-1.54 2.74-2.33 3.67-2.92 7.42-5.69 11.2-8.4 2.41-1.73 4.71-3.54 7.02-5.4 2.51-2.02 4.87-3.63 7.72-5.15 8.18-4.37 11.7-8.44 16.2-16.4 3.36-5.86 7.04-9.35 12.5-13.3 2.92-2.17 3.08-3.18 3.69-6.8 0.89-6.63 1.74-13.1 1.46-19.8-5.22 2.81-10.3 5.79-15.3 8.94-6.05 3.76-12.3 7-18.7 10.1 0-3.69 0.895-5 3-8 2.24-2.11 2.24-2.11 4.88-4.19 0.98-0.776 1.96-1.55 2.97-2.35 0.517-0.403 1.03-0.805 1.57-1.22 1.59-1.24 3.17-2.5 4.75-3.76 1.07-0.848 2.14-1.69 3.22-2.54 0.538-0.424 1.08-0.848 1.63-1.28 3.79-2.91 7.71-5.15 11.9-7.4 7.5-4.49 9.38-10.2 12.1-18.2 0.972-2.63 2.01-5.22 3.06-7.81 0.445-1.16 0.889-2.32 1.35-3.52 1.59-2.67 1.59-2.67 3.95-3.59 2.68-0.0834 5.17 0.0637 7.83 0.418 3.54 0.581 3.54 0.581 6.81-0.5v-4c-0.748-0.11-1.5-0.219-2.27-0.332-0.985-0.159-1.97-0.317-2.98-0.48-1.46-0.226-1.46-0.226-2.95-0.457-2.95-0.77-4.43-1.88-6.8-3.73-11.5-0.478-24.1 11.2-33.3 17.1-13 8.39-13 8.39-18.7 7.89-0.33-0.66-0.66-1.32-1-2 4.26-4.58 9.06-8.15 14.1-11.8 0.849-0.619 1.7-1.24 2.57-1.88 1.68-1.22 3.36-2.45 5.04-3.67 1.86-1.35 3.71-2.72 5.56-4.09 6.98-5.16 6.98-5.16 10.6-7.13 7.04-3.92 10.1-7.76 13.3-15.1 3.98-7.15 10.4-11.8 17.1-16.2 0.77-0.512 1.54-1.02 2.33-1.55 10.9-7.03 23.2-13.8 36.4-13.5-0.628-2.97-0.628-2.97-2-6-2.33-1.2-2.33-1.2-5-2-3.24-2.21-4.89-3.8-6.81-7.25-0.722-0.908-1.44-1.82-2.19-2.75-6.91-0.609-13.5 0.824-20.3 2-8.24 1.35-16.3 2.4-24.7 2.44-0.788 0.00967-1.58 0.0193-2.39 0.0293-2.17-0.0332-2.17-0.0332-5.61-0.467-0.66-0.99-1.32-1.98-2-3 2.4-2.87 4.24-3.53 7.89-4.18 1.01-0.185 2.01-0.37 3.05-0.561 1.09-0.19 2.19-0.38 3.31-0.576 2.34-0.432 4.68-0.864 7.03-1.3 3.26-0.59 6.53-1.18 9.79-1.76 4.23-0.757 8.46-1.53 12.7-2.31 2.03-0.373 4.07-0.729 6.1-1.09 1.25-0.232 2.5-0.465 3.79-0.704 1.11-0.199 2.21-0.397 3.35-0.602 3.41-1.05 5.34-2.58 8-4.93 4.88-2.84 9.86-4.25 15.3-5.56 0.9-0.221 1.8-0.441 2.73-0.668 8.44-1.92 16.9-2.57 25.5-2.79 6.36-0.287 9.48-1.18 14-5.71 1.45-1.28 1.45-1.28 3.97-1.53 1.14 0.342 1.14 0.342 2.29 0.691 0.749 0.205 1.5 0.41 2.27 0.621 1.66 0.534 3.31 1.09 4.93 1.7 7.07 2.45 13.8 2.7 21.2 2.63 2-0.016 4.01 0.00139 6.01 0.019 15.8-0.0467 34.9-2.87 46.8-14.4 2.26-2.51 4.46-4.98 6-8-0.33-0.99-0.66-1.98-1-3-1 0.675-2.01 1.35-3.04 2.05-12.6 8.31-24.3 13.1-39.7 13.2-0.733 0.0057-1.47 0.0114-2.22 0.0173-1.55 0.00941-3.1 0.016-4.65 0.0198-2.32 0.00961-4.63 0.0406-6.95 0.0723-12.7 0.0897-31 0.00266-40.6-9.38-0.704-0.74-1.41-1.48-2.13-2.24-2.65-2.47-4.08-3.59-7.69-4.12-3.75 0.208-7.37 0.744-11.1 1.43-1.25 0.219-1.25 0.219-2.52 0.443-7.07 1.25-14.1 2.63-21.1 4.13-4.37 0.919-8.46 1.68-13 1.55-0.838-0.018-1.68-0.0361-2.54-0.0547-0.606-0.0232-1.21-0.0464-1.84-0.0703v-3c10.8-5.18 22.1-8.9 33.8-11.6 16-3.51 16-3.51 29.4-12.2 15.4-12.2 36.2-11.9 54.8-11.2 0.758 0.0251 1.52 0.0503 2.3 0.0762 12.3 0.559 22 5.06 32.3 11.6 5.99 3.76 11.4 4.33 18.4 3.36 2.28-0.937 2.28-0.937 4-2 2 3 2 3 1.81 5.25-0.812 2.75-0.812 2.75-2.44 6.12-1.65 4.36-1.66 6.15-0.375 10.6 3.11 6.62 6.51 11.5 13 15 2.94 1.05 5.88 1.71 8.94 2.31 0.779 0.168 1.56 0.336 2.36 0.51 1.9 0.407 3.8 0.795 5.7 1.18 0-2.5-3.33-5.22-5-7-1.36-1.16-2.74-2.3-4.12-3.44-4.49-3.89-6.55-7.27-7.15-13.3-0.43-12.9 3.72-22 12.4-31.5 3.11-3.17 6.21-6.2 9.91-8.7h2c1.05-2.63 1.05-2.63 1-4-4.91 1.63-8.81 4.43-13 7.38-1.05 0.723-1.05 0.723-2.12 1.46-2.99 2.07-5.83 4.12-8.57 6.52-2.31 1.65-2.31 1.65-4.76 2.15-8.19-1.6-17-10.8-21.6-17.5-0.628-1.45-1.23-2.91-1.81-4.38-1.33-2.79-1.33-2.79-3.89-4.35-10.2-1.76-20.5-2.57-30.7-3.53-2.6-0.244-5.2-0.497-7.8-0.75-0.791-0.0709-1.58-0.142-2.4-0.215-4.38-0.43-8.22-1.2-12.4-2.79 2-3 2-3 4.19-3.51 6.87-0.448 13.7-0.579 20.6-0.48 2.21 0.0175 4.42 0.0344 6.63 0.0508 3.44 0.031 6.88 0.0667 10.3 0.113 3.35 0.0424 6.7 0.0658 10.1 0.0864 1.53 0.0279 1.53 0.0279 3.1 0.0564 5.89 0.0211 9.9-0.605 15.1-3.31 17.7-4.84 40.9 0.248 57 8z" fill="#000002"/>
<path transform="translate(181 824)" d="m0 0c3.56 1.19 3.56 1.19 6.56 3.19 2.43 0.561 2.43 0.561 5.16 0.895 1.03 0.148 2.06 0.296 3.13 0.448 1.1 0.155 2.2 0.31 3.34 0.469 24.1 3.66 44.5 9.94 60 30 3.93 6.11 4.12 12 3.38 19.1-1.44 3.12-1.44 3.12-4 6-0.633 0.77-1.27 1.54-1.92 2.33-12.8 15.2-30.5 22.8-50.1 24.7-3.23 0.143-6.46 0.164-9.7 0.168-0.91 0.00333-1.82 0.00666-2.76 0.0101-1.92 0.00504-3.84 0.00741-5.75 0.00725-2.89 0.00218-5.78 0.0203-8.67 0.0393-13.4 0.043-26.6-0.123-39.2-5.29-0.755-0.303-1.51-0.606-2.29-0.918-12.5-5.25-24.6-13.4-30.2-26.1-2.07-5.3-2.17-9.95-0.285-15.3 8.76-17.7 23.5-24 41.4-30.4 6.21-1.99 12.5-3.17 18.9-3.96 2.31-0.286 2.31-0.286 5.46-1.16 1.42-1.93 1.42-1.93 2-4 2-1 2-1 5.44-0.188z" fill="#000002"/>
<path transform="translate(490,600)" d="m0 0c-2.53 3.08-4.98 3.8-8.78 4.83-1.73 0.486-1.73 0.486-3.5 0.982-2.41 0.656-4.81 1.31-7.22 1.96-17.6 4.96-35.2 14.2-44.5 30.7-5.28 9.91-9.11 20-6.27 31.3 3.23 9.53 8.46 17.5 14.8 25.3 1.46 1.93 2.51 3.81 3.52 6.01-16.4-4.91-28.5-17.5-38.9-30.5-1.61-1.98-3.21-3.78-5.06-5.53-15.1 4.52-29.2 10.3-41 21-0.947 0.793-0.947 0.793-1.91 1.6-8.05 7.2-13.4 18.3-14.4 29-0.149 14 4.08 25.2 13.2 35.9 2.12 2.5 2.12 2.5 2.12 4.5-3.47-0.458-6.67-0.891-10-2-1.87-0.116-3.74-0.178-5.61-0.211-29.4-0.674-65.7-1.59-88.3-23.4-4.46-5.18-7.44-10.5-7.07-17.4 1.98-0.99 1.98-0.99 4-2 0.536 0.557 1.07 1.11 1.62 1.69 5.03 4.9 9.94 8.49 16.2 11.6 0.614 0.313 1.23 0.625 1.86 0.947 12.1 5.81 25 7.93 38.1 9.99 1.68 0.27 3.35 0.541 5.03 0.812 4.05 0.655 8.11 1.3 12.2 1.94-1.24-4.47-2.63-8.51-4.62-12.7-3.36-7.98-3.72-15.3-0.812-23.5 2.4-5.25 5.63-9.51 9.44-13.8 0.697-0.815 1.39-1.63 2.11-2.47 15.4-16.8 40.2-24.7 62.3-26.5 2.4-0.0147 4.28 0.275 6.56 0.984-0.0825-1.24-0.165-2.48-0.25-3.75 0.058-12.3 6.7-23.5 14.8-32.4 5.38-5.1 11.9-8.38 18.4-11.8 0.834-0.474 1.67-0.949 2.53-1.44 15.3-8.36 42.2-15.7 59.5-11.6z" fill="#FBFDFD"/>
<path transform="translate(1043 290)" d="m0 0c19.5 10.3 31.7 25.4 38.9 46.1 1.32 4.75 1.29 9.5 1.3 14.4 0.0245 0.911 0.049 1.82 0.0742 2.76 0.0264 6.11-0.754 9.81-4.45 14.7-4.25 3.02-9 2.6-14 2-20.9-4.75-35.4-18.3-47-36-5.35-8.87-10.8-20.8-10.1-31.4 2.14-7.17 5.37-11.9 12.1-15.6 8.19-2.73 15.6-0.583 23.1 3.02z" fill="#000002"/>
<path transform="translate(1121,1154)" d="m0 0c4.09 4.27 6.38 8.43 6.81 14.4-0.594 9.67-7.63 17.2-14.4 23.6-16.7 14.2-37.7 19.4-59.2 17.8-7.1-0.792-12.1-1.59-17.2-6.72-2.81-4.81-4.04-9.48-3-15 4.74-13.2 15.1-20.9 26-29 0.855-0.648 1.71-1.3 2.59-1.96 5.04-3.62 9.29-5.23 15.4-6.04 0.62-0.0927 1.24-0.185 1.88-0.281 32.1-4.74 32.1-4.74 41.1 3.28z" fill="#000002"/>
<path transform="translate(1147,293)" d="m0 0c0.66 0.33 1.32 0.66 2 1 0.521 2.59 0.94 5.14 1.31 7.75 1.85 11.5 5.89 28.8 15.7 36.2h4c1.63-1.84 1.63-1.84 2.94-4.25 3.73-5.96 8.11-9.94 15.1-11.8 11.9-1.84 23.8 2.83 33.6 9.5 1.5 1.14 2.98 2.31 4.44 3.5 0.678 0.552 1.36 1.1 2.05 1.67 2.27 1.91 4.46 3.81 6.49 5.98 1.42 1.57 1.42 1.57 3.83 1.73 2.68-0.201 2.68-0.201 4.81-1.75 7.24-4.19 15.8-4.31 23.8-2.62 13 4.15 28.5 11.8 35.6 24 0.474 0.99 0.949 1.98 1.44 3-4.65-1.36-8.33-3.31-12.4-5.88-9.82-5.86-21.6-10.1-33.1-7.58-9.85 2.61-14.2 8-19.5 16.5-1.78 3.28-3.43 6.61-5 10-1.48-0.99-1.48-0.99-3-2-0.989-7.3-0.373-14.2 2.33-21 1.03-3.02 0.929-5.82 0.672-8.97-1.23-2.47-2.11-2.72-4.57-3.88-0.732-0.345-1.46-0.691-2.22-1.05-0.771-0.356-1.54-0.712-2.34-1.08-0.748-0.356-1.5-0.712-2.27-1.08-9.92-4.63-20.3-7.41-31-3.75-8.95 4.26-13.3 9.58-16.6 18.8-0.523 2.36-0.794 4.58-1 7-5.61-1.37-8.05-5.33-11.3-9.75-0.572-0.764-1.14-1.53-1.73-2.32-9.25-12.6-21.5-30.5-20-46.9 0.962-3.54 2.15-6.82 4-10 0.66-0.33 1.32-0.66 2-1z" fill="#FBFDFD"/>
<path transform="translate(829,778)" d="m0 0c-3.1 2.61-5.95 3.82-9.8 5.02-1.13 0.36-2.27 0.721-3.44 1.09-1.2 0.377-2.4 0.754-3.63 1.14-20.6 6.69-38 14.7-48.7 34.6-5.57 11.7-6.94 21.4-2.86 33.8 3.37 8 9.28 14.5 15.1 20.8 1.25 1.56 1.25 1.56 1.25 3.56-12.5-2.07-26.4-12-34-22-5.49-8.31-9.6-17-8.84-27.2 0.423-2.07 1.04-3.87 1.84-5.82 0.309-0.779 0.619-1.56 0.938-2.36 7.4-16.6 23.3-27.9 39.7-34.5 12.3-4.56 25.4-7.05 38.4-8.56 0.723-0.0848 1.45-0.17 2.19-0.257 4.13-0.409 7.76-0.242 11.8 0.632z" fill="#FBFDFD"/>
<path transform="translate(798,1016)" d="m0 0v2c-1.26 0.28-2.52 0.559-3.81 0.848-21.7 5-45 13.6-58.5 32.4-7.1 11.7-9.98 23.4-6.99 36.9 2.47 7.45 6.66 13.6 11.6 19.7 1.68 2.18 2.12 3.56 2.69 6.19 0.99 0.495 0.99 0.495 2 1-10.9 0-22.6-11-30.2-18-7.71-8.14-11.3-18.4-11.1-29.4 1.22-12.7 9.48-22.8 19-30.7 16.1-12.5 37.4-18.8 57.4-20.8 1.77-0.184 1.77-0.184 3.58-0.371 5.06-0.46 9.45-0.842 14.4 0.371z" fill="#FBFDFD"/>
<path transform="translate(568,1016)" d="m0 0c-3.74 3.5-7.98 4.18-12.8 5.31-20.6 5.17-39.9 14-51.6 32.8-6.16 10.5-9.09 20.8-6.61 32.9 2.67 8.21 7.72 14.9 13.2 21.4 0.688 0.818 0.688 0.818 1.39 1.65 1.12 1.33 2.24 2.65 3.36 3.97-2 1-2 1-3.96 0.504-15.6-6.1-29.4-16.9-36.6-32.4-3.12-9.13-2.57-17.7 1.5-26.4 6.48-12 15.5-19.1 27.1-25.8 0.991-0.567 1.98-1.13 3-1.72 17.5-9.35 42.2-15.6 62-12.3z" fill="#FBFDFD"/>
<path transform="translate(467,865)" d="m0 0v3c-0.542 0.11-1.08 0.219-1.64 0.332-22.8 4.71-47.8 13.2-61.7 33.2-0.902 1.48-1.78 2.98-2.62 4.5-0.389 0.673-0.779 1.35-1.18 2.04-5.14 10-6.13 22.3-2.82 33 2.14 6.3 6.37 11.3 10.5 16.4 2.19 2.74 4.13 5.34 5.53 8.57-16.1-4.48-29.5-15.8-38-30-3.88-7.93-5.72-14.9-2.86-23.4 2.8-6.92 5.89-13 10.9-18.6 0.679-0.851 0.679-0.851 1.37-1.72 5.78-6.6 14-10.3 21.6-14.3 0.929-0.498 1.86-0.995 2.82-1.51 17.3-8.62 39-11.9 58.2-11.5z" fill="#FBFDFD"/>
<path transform="translate(652,1028)" d="m0 0c-0.681 0.366-1.36 0.732-2.06 1.11-6.52 3.64-12.5 7.65-18.5 12.1-0.69 0.519-1.38 1.04-2.09 1.57-3.63 2.74-3.63 2.74-6.93 5.84-1.41 1.33-1.41 1.33-3.41 1.33-0.381 0.87-0.381 0.87-0.77 1.76-1.36 2.48-2.93 4.11-4.92 6.12-8.95 9.89-16.3 25.6-15.8 39.2 1.37 8.9 4.62 18.8 11.4 24.9 3.42 2.51 6.94 4.88 10.5 7.15 0.689 0.442 1.38 0.884 2.09 1.34 0.627 0.389 1.25 0.778 1.9 1.18 1.85 1.66 2.11 2.92 2.49 5.34-17.4-0.673-31.7-4.32-44.1-17.6-5.63-7.2-8.32-15.3-7.91-24.4 2.44-19 14.5-33.3 29-45 6.83-5.15 14-9.34 21.6-13.2 1.46-0.773 1.46-0.773 2.96-1.56 5.71-2.96 11.3-5.36 17.5-7.19 3.13-1.04 3.99-0.934 7 0z" fill="#FBFDFD"/>
<path transform="translate(811,643)" d="m0 0c-2.14 2.4-3.82 3.51-6.88 4.46-0.751 0.24-1.5 0.481-2.28 0.728-0.794 0.246-1.59 0.491-2.41 0.744-1.64 0.529-3.28 1.06-4.93 1.59-0.786 0.254-1.57 0.508-2.38 0.77-4.14 1.36-8.15 2.93-12.1 4.7-1.07 0.455-2.15 0.91-3.25 1.38-15.7 7.16-27.3 18.8-33.8 34.9-3.69 10.3-2.88 20.6 1.39 30.6 2.21 4.21 4.84 7.94 7.77 11.7 1.84 2.41 3.47 4.74 4.87 7.44-0.33 0.66-0.66 1.32-1 2-16-7.24-29.9-18.1-37.1-34.5-3.44-9.57-1.45-18.5 2.74-27.5 8.8-16.6 25.2-25.7 42.4-31.9 7.26-2.05 14.7-3.33 22.1-4.52 2.71-0.445 5.39-0.943 8.09-1.47 12.1-2.33 12.1-2.33 16.8-1z" fill="#FBFDFD"/>
<path transform="translate(640,659)" d="m0 0c-4.38 3.06-8.64 4.02-13.8 5.19-13 3.2-24.8 8.39-35.5 16.6-1.79 1.25-1.79 1.25-3.79 1.25-0.495 1.49-0.495 1.49-1 3-1.15 1-2.34 1.96-3.56 2.88-8.06 6.8-14.2 17.6-15.4 28.1-0.971 13.3 3.63 23.5 12.2 33.6 1.4 1.55 2.82 3.08 4.26 4.6 1.5 1.78 1.5 1.78 1.5 3.78-12-1.42-23.5-10.8-31.3-19.6-6.06-7.86-10.6-16.5-10.1-26.7 1.32-7.73 4.59-15.5 9.46-21.7 0.387-0.575 0.773-1.15 1.17-1.74 13.6-18.2 40.7-24.8 61.8-28.3 0.913-0.16 1.83-0.32 2.77-0.485 2.74-0.48 5.49-0.939 8.23-1.39 0.843-0.145 1.69-0.289 2.55-0.438 0.786-0.121 1.57-0.242 2.38-0.366 1.03-0.166 1.03-0.166 2.09-0.335 2.44 0.0187 3.89 0.798 5.97 2.02z" fill="#FBFDFD"/>
<path transform="translate(810,898)" d="m0 0c-2.6 1.73-4.65 2.73-7.54 3.8-0.893 0.336-1.79 0.673-2.71 1.02-0.931 0.347-1.86 0.694-2.82 1.05-14.4 5.26-14.4 5.26-28.2 12.1-1.14 0.648-2.28 1.3-3.45 1.96-2.43 1.54-4.44 3-6.59 4.85-2.7 2.25-2.7 2.25-4.7 2.25-0.495 1.49-0.495 1.49-1 3h-2c-0.247 0.498-0.495 0.995-0.75 1.51-1.03 2.06-2.08 4.12-3.12 6.17-0.708 1.4-1.42 2.8-2.12 4.2-0.356 0.695-0.712 1.39-1.08 2.11-4.85 9.61-6.78 18.1-3.89 28.8 3.05 8.77 7.73 15.3 14 22.2 1.34 1.66 2.68 3.32 4 5-11.4 0-21.6-9.49-29.3-16.9-7.45-7.71-12.6-16-13-26.9 0.308-12 6.15-22.6 14.3-31.2 15.6-14.4 36.9-19.3 57-23.4 1.02-0.21 1.02-0.21 2.06-0.423 13.7-2.78 13.7-2.78 20.9-1.2z" fill="#FBFDFD"/>
<path transform="translate(399,812)" d="m0 0v2c0.99 0.33 1.98 0.66 3 1-4.58 1.87-9.16 3.7-13.8 5.39-12.7 4.61-24 9.54-34.2 18.6-0.648 0.566-1.3 1.13-1.96 1.71-8.22 7.64-14.2 18.5-15.4 29.7-0.397 12 2.61 21.5 10.4 30.6 1.3 1.62 2.59 3.24 3.88 4.88 0.596 0.74 1.19 1.48 1.8 2.24 1.32 1.88 1.32 1.88 1.32 3.88-5.48-0.471-8.85-2.45-13.2-5.5-0.656-0.449-1.31-0.897-1.99-1.36-11.9-8.26-21.9-17.8-25.8-32.1-1.52-10.8 2.38-19.3 8.51-28 1.99-2.61 4.03-4.77 6.49-6.95 0.651-0.593 1.3-1.19 1.97-1.8 17.8-15.3 45.6-24.2 69-24.2z" fill="#FBFDFD"/>
<path transform="translate(724,742)" d="m0 0c-2.92 1.95-5.55 3.11-8.81 4.39-1.16 0.463-2.32 0.926-3.51 1.4-2.42 0.959-4.84 1.91-7.26 2.87-17.2 6.88-35.2 16.6-43.7 34-4.62 11.4-5.69 23.6-1.3 35.4 2.64 4.9 6.2 8.89 9.95 13 2.57 2.82 4.62 5.79 6.66 9.01-13.8-3.17-28.3-12.9-36.1-24.6-5.06-8.39-8.09-15.5-6.91-25.4 4.94-16.6 15.1-27.9 30.1-36.2 17.3-9.02 41.4-17 60.9-13.8z" fill="#FBFDFD"/>
<path transform="translate(482,975)" d="m0 0c-0.66 0.66-1.32 1.32-2 2h-3c-0.33 0.99-0.66 1.98-1 3-2.12 1.51-2.12 1.51-4.88 3.12-17.7 10.9-33.9 26.6-39 47.4-1.93 11.7-1.96 22.4 4.85 32.5 5.04 6.35 11.5 10.5 18.2 14.8 2.9 2.29 3.79 3.67 4.76 7.18-6.62 0.382-11.7-0.853-17.9-3.12-0.883-0.318-1.77-0.637-2.68-0.965-6.28-2.33-12-4.9-17.4-8.91-0.7-0.474-1.4-0.949-2.12-1.44-7.3-5.52-11.7-13.9-13.6-22.8-0.813-13 6.11-26.1 14-35.9 12.4-13.6 26-23.4 42.5-31.5 1.08-0.538 2.17-1.08 3.28-1.63 5.51-2.62 9.71-4.57 15.8-3.81z" fill="#FBFDFD"/>
<path transform="translate(661,878)" d="m0 0c-8.13 3.45-16.2 6.82-24.6 9.44-16.6 5.4-32.9 14.9-41.3 30.8-5.23 10.4-8.27 20.3-5.35 31.8 2.72 7.26 6.97 13 11.8 18.9 2.33 2.92 4.38 5.87 6.4 9.01-10.7 0-22-11-29.4-17.9-8.72-9.1-12.2-18.7-12-31.2 1.18-12.3 8.69-22.4 18-30.1 18-13.1 38.6-17.6 60.2-21.1 1.14-0.192 2.28-0.384 3.45-0.582 1.07-0.166 2.15-0.332 3.25-0.504 0.96-0.153 1.92-0.305 2.91-0.462 2.82-0.0842 4.2 0.445 6.57 1.92z" fill="#FBFDFD"/>
<path transform="translate(581,643)" d="m0 0c-2.7 2.7-5.83 3.44-9.38 4.62-21.4 7.07-21.4 7.07-40.6 18.4-0.784 0.58-1.57 1.16-2.38 1.76-9.05 7.31-17.1 19.6-18.6 31.2-1.32 19.3 7.05 30 19 44-3 1-3 1-6.44-0.59-1.38-0.769-2.75-1.55-4.12-2.35-1.08-0.62-1.08-0.62-2.18-1.25-13.2-7.77-24-17.1-29.3-31.8-0.316-0.79-0.632-1.58-0.957-2.39-2.55-8.22 1.33-15.3 4.96-22.6 9.69-18 27.5-27.3 46.4-33 6.21-1.67 12.5-2.72 18.8-3.73 1.93-0.331 1.93-0.331 3.9-0.668 7.03-1.16 13.8-1.92 20.9-1.58z" fill="#FBFDFD"/>
<path transform="translate(495,741)" d="m0 0c-2.47 1.65-4.38 2.63-7.11 3.66-0.811 0.313-1.62 0.627-2.46 0.95-0.866 0.334-1.73 0.667-2.62 1.01-12.8 5.02-25.4 10.7-36.8 18.4-0.608 0.4-1.22 0.799-1.84 1.21-8.35 6.26-15.2 18.3-17.8 28.3-1.91 14.3 1.1 25.1 9.67 36.5 1.87 2.4 3.76 4.79 5.68 7.15 1.32 1.85 1.32 1.85 1.32 3.85-13.3-3.51-29.6-16.3-37-28-1.33-3.28-2.24-6.55-3-10-0.188-0.593-0.376-1.19-0.57-1.8-1.32-6.78-0.294-11.9 2.51-18.1 0.314-0.696 0.629-1.39 0.952-2.11 8.2-17.3 24.9-26.6 42.1-33 4.94-1.63 9.92-2.89 15-4 0.792-0.18 1.58-0.361 2.4-0.547 9.9-2.24 19.4-4.2 29.6-3.45z" fill="#FBFDFD"/>
<path transform="translate(610,799)" d="m0 0c-3.02 2.51-5.75 3.76-9.48 4.95-1.07 0.35-2.15 0.7-3.25 1.06-1.14 0.369-2.28 0.738-3.45 1.12-10.9 3.67-20.9 7.9-30.8 13.9-0.822 0.487-1.64 0.975-2.49 1.48-9.87 6.57-16.8 18.5-20.5 29.5-2.46 12.7 0.0577 22.3 7 33 2.14 2.92 4.37 5.78 6.66 8.58 2.2 2.72 3.89 4.88 4.34 8.42-8.28-3.76-15.1-8.06-22-14-0.699-0.554-1.4-1.11-2.12-1.68-9.18-7.47-15.7-16.7-17.2-28.6-0.519-11.2 4.01-21.4 11.1-29.9 5.05-5.39 10.8-9.25 17.2-12.8 0.567-0.325 1.13-0.65 1.72-0.985 16.9-9.5 43.9-17.8 63.3-14z" fill="#FBFDFD"/>
<path transform="translate(1155,1009)" d="m0 0c-7.05 8.37-7.05 8.37-10 11h-2c-0.278 0.565-0.557 1.13-0.844 1.71-0.767 1.52-1.56 3.02-2.38 4.52-4.74 8.86-7.28 17.8-4.78 27.8 2.87 6.8 7.68 11 14.3 14.1 2.22 1.23 2.64 2.67 3.69 4.94-0.935 0.291-1.87 0.583-2.83 0.883-0.625 0.195-1.25 0.39-1.89 0.591-1.41 0.44-2.82 0.88-4.23 1.32-4.04 1.26-8.07 2.54-12.1 3.84-1.25 0.404-1.25 0.404-2.53 0.816-1.62 0.523-3.24 1.05-4.86 1.58-11.1 3.56-26.5 5.64-37.6 1.09-3.74-2.16-7.17-4.8-9.94-8.12v-3c0.981 0.144 1.96 0.289 2.97 0.438 13.2 1.85 25.7 2.24 38.9 0 3.09-0.432 6.01-0.512 9.12-0.438-1.29-5.46-4.19-9.37-7.44-13.8-3.05-4.25-3.2-8.07-2.56-13.2 2.51-8.75 7.09-15.2 13-22 0.907-1.23 0.907-1.23 1.83-2.49 2.59-3 5.52-5.09 8.79-7.26 0.585-0.398 1.17-0.797 1.77-1.21 6.34-4.29 6.34-4.29 11.6-3.04z" fill="#FBFDFD"/>
<path transform="translate(940,809)" d="m0 0c-5.2 2.42-10.4 4.49-15.8 6.31-12.9 4.55-22.5 10.5-29 22.7-3.38 7.3-5.27 14-3.19 22 2.82 6.75 7.4 12.4 12 18l-2 2c-11.5-5.55-21.9-13-27.3-24.9-2-9.08-0.123-15.4 4.56-23.2 9.33-13.8 28.1-20.4 43.8-23.9 12.5-2.01 12.5-2.01 17 1z" fill="#FBFDFD"/>
<path transform="translate(919,927)" d="m0 0c-2.47 1.65-4.58 2.76-7.28 3.92-22.3 9.37-22.3 9.37-37.2 27.6-2.58 7.39-3.11 16.8-0.547 24.2 1.21 2.23 2.51 4.2 4.05 6.22 5 7 5 7 5 9 0.66 0.33 1.32 0.66 2 1-7.98 0-15.5-6.78-21-12-5.6-6.52-9.9-13.6-10.1-22.3 3.73-13 10.7-21.4 22.4-27.9 12.3-6.4 28.7-13.4 42.7-9.83z" fill="#FBFDFD"/>
<path transform="translate(909,713)" d="m0 0c-2.69 2.15-5.24 3.68-8.41 5.02-0.839 0.36-1.68 0.72-2.54 1.09-0.881 0.377-1.76 0.754-2.67 1.14-12.6 5.59-22.3 11-28.4 24-3.31 8.86-3.93 17.2-0.332 26 1.97 3.86 4.38 7.28 7 10.7 1.39 2 1.39 2 1.39 4 0.66 0.33 1.32 0.66 2 1-7.97 0-14.9-6.4-20.4-11.8-5.82-5.97-10.7-12.2-11.2-20.8 0.585-8.76 5.64-16.2 11.6-22.4 12.9-11.1 34.8-20.6 52-18z" fill="#FBFDFD"/>
<path transform="translate(1330,586)" d="m0 0c9 4.84 17.9 10.9 23 20v2c-3.54-1.28-6.68-2.93-9.91-4.87-12.5-7.49-24.2-10.1-38.8-7.7-7.62 2.36-10.9 8.68-14.5 15.3-0.703 1.35-1.4 2.7-2.08 4.05-1.61 3.18-3.03 5.94-5.8 8.24-2.91-8.73-1.69-20.3 2.19-28.5 10.1-18.7 29.1-16.4 45.8-8.48z" fill="#FBFDFD"/>
<path transform="translate(1121,436)" d="m0 0c1.15 0.325 2.29 0.65 3.48 0.984 15.7 4.73 27.2 13.3 37.5 26-0.33 0.66-0.66 1.32-1 2-0.476-0.352-0.951-0.704-1.44-1.07-11.7-8.27-25.8-15.5-40.6-13.9-8.07 1.59-14.3 4.36-19.2 11.1-2.56 4.96-3.58 10.5-4.75 15.9-1.65-0.33-3.3-0.66-5-1-2.59-9.28-2.82-17.1 1.62-25.8 4.73-7.85 9.97-11.7 18.7-14.6 3.89-0.92 6.9-0.711 10.7 0.367z" fill="#FBFDFD"/>
<path transform="translate(1235 489)" d="m0 0c7.58 4.72 14.5 10.1 19.1 17.9v2h-2v-2c-0.675-0.248-1.35-0.495-2.05-0.75-2.87-1.22-5.55-2.64-8.27-4.17-8.86-4.97-8.86-4.97-18.7-7.08-1.16-0.0915-2.33-0.183-3.53-0.277-9.29-0.38-15.9 0.698-23.2 6.68-5.24 5.4-8.15 12.9-11.3 19.6-1.32-0.33-2.64-0.66-4-1-0.289-11.4-0.318-22.5 7.43-31.7 14.1-13.4 31.4-7.75 46.5 0.777z" fill="#FBFDFD"/>
<path transform="translate(1302 412)" d="m0 0c3.72 2.55 6.66 5.49 9.66 8.83 0.928 0.887 1.86 1.77 2.81 2.69 1.96 2.07 3.12 3.7 4.19 6.31-3.13-1.52-6.18-3.19-9.23-4.87-11.7-6.39-24.2-11.8-37.8-8.38-6.85 2.36-11.9 4.59-15.2 11.3-2.12 5.15-3.03 10.4-3.81 15.9-2.38-0.625-2.38-0.625-5-2-3.24-6.93-3.3-15.1-0.902-22.3 4.03-8.62 8.46-13.5 17.2-17.1 13.4-4.35 26.6 2.7 38 9.61z" fill="#FBFDFD"/>
<path transform="translate(1151 398)" d="m0 0c4.72 3.66 7.89 7.85 10.8 13.1-3.62-0.996-6.5-2.26-9.56-4.38-8.67-5.66-21.1-8.83-31.4-7.62-4.4 1.3-8.49 2.86-12.2 5.64-1.83 1.36-1.83 1.36-3.83 1.36-3.35 6.45-5.79 13.1-8 20-1.88-0.25-1.88-0.25-4-1-3.13-4.48-2.52-9.79-2-15 1.53-7.19 3.26-14.1 9-19 18.5-10.7 34.3-4.6 51.2 6.94z" fill="#FBFDFD"/>
<path transform="translate(1321 449)" d="m0 0c5.55 4.34 10.1 8.9 13.9 14.8-0.33 0.66-0.66 1.32-1 2-0.764-0.508-1.53-1.02-2.32-1.54-12.8-8.23-26.1-14.8-41.7-13.5-7.76 1.72-12.5 5.52-17 12-2.51 4.54-3.07 9.93-4 15-2.38-0.952-3.73-1.55-5.08-3.78-2.78-8.22-2.38-15.6 1.14-23.5 4.31-7.73 11.2-11.7 19.5-14.2 12.5-1.62 26.7 5.84 36.5 12.7z" fill="#FBFDFD"/>
<path transform="translate(1219 411)" d="m0 0c6.71 4.22 13.2 9.23 16.8 16.4-0.33 0.66-0.66 1.32-1 2-0.837-0.592-1.67-1.18-2.54-1.79-11.6-7.94-26-15.1-40.5-13.2-7.79 2.55-14.7 6.37-19 13.6-1.95 4.6-2.48 9.5-3.04 14.4-4.88-3.62-4.88-3.62-6-7-0.773-18.1-0.773-18.1 2.56-23.6 16.7-16.7 33.9-12.1 52.7-0.879z" fill="#FBFDFD"/>
<path transform="translate(1262,626)" d="m0 0c0.86 0.409 1.72 0.817 2.61 1.24 8.64 4.32 17 10.6 22.4 18.8v2c-4.31-1.59-8.24-3.72-12.2-5.94-5.44-2.96-10.7-5.52-16.8-7.06-0.825-0.227-1.65-0.454-2.5-0.688-9.93-1.24-18.3 0.586-26.7 6.19-5.95 5-7.95 12.2-9.79 19.5-1.95-0.691-1.95-0.691-4-2-2.72-8.86-0.731-19.2 3.38-27.3 4.18-6.48 10.9-9.28 18.1-11.4 8.6-0.922 18 2.81 25.6 6.73z" fill="#FBFDFD"/>
<path transform="translate(1196,538)" d="m0 0c0.789 0.166 1.58 0.333 2.39 0.504 12.5 3.21 26.8 11.1 34.2 21.9 0.811 1.51 1.61 3.03 2.38 4.56-0.571-0.287-1.14-0.574-1.73-0.869-3.84-1.92-7.71-3.77-11.6-5.63-1.24-0.605-1.24-0.605-2.51-1.22-10.8-5.16-22.5-7.77-34.3-4.37-5.96 2.79-10.1 6.34-12.9 12.4-0.999 2.83-1.57 5.53-2.07 8.49-0.168 0.976-0.335 1.95-0.508 2.96-0.121 0.736-0.242 1.47-0.367 2.23-1.48 0.495-1.48 0.495-3 1v-3h-2c-2.37-10.7-2.21-18.8 3.38-28.4 6.66-9.62 17.4-13 28.6-10.6z" fill="#FBFDFD"/>
<path transform="translate(1317 527)" d="m0 0c5.5 3.44 10.3 7.79 13.9 13.2v2c-3.98-1.49-7.63-3.37-11.4-5.38-11.8-6.05-25.2-10.2-38.4-6.5-6.91 2.63-11.7 7.47-15.2 13.9-1.43 3.3-2.75 6.63-4 10l-4-2c-0.794-11.6-0.193-20.6 7.61-29.9 15.8-15 35.6-4.51 51.5 4.75z" fill="#FBFDFD"/>
<path transform="translate(1248,1112)" d="m0 0c-3.41 3.49-6.92 6.71-10.7 9.81-0.953 0.79-1.91 1.58-2.89 2.39-2.43 1.79-2.43 1.79-4.43 1.79-0.26 0.566-0.521 1.13-0.789 1.71-1.32 2.49-2.89 4.6-4.59 6.85-5.2 7.37-8.8 15.3-7.62 24.4 2.05 7.36 6.03 11.5 12 16 1.69 1.3 3.37 2.62 5 4v2c0.99 0.33 1.98 0.66 3 1-1 1-1 1-3.75 1.31-10-0.206-19.2-4.33-26.2-11.3-3.96-4.29-6.1-8-6-14 1.81-9 5.25-15.9 11-23 0.802-1.05 0.802-1.05 1.62-2.11 7.19-8.88 22.4-21.9 34.4-20.9z" fill="#FBFDFD"/>
<path transform="translate(1108 511)" d="m0 0c3.13 1.98 4.92 3.9 7.03 6.91-4.84-1.03-9.57-2.16-14.3-3.56-12.1-3.27-22-2.91-33.3 2.92-6.67 4.11-10.9 9.2-13.4 16.6-0.489 5.69-0.207 11.4 1 17-5.03-2.94-8.26-5.4-9.94-11.1-0.381-1.62-0.737-3.24-1.06-4.88-0.18-0.683-0.361-1.37-0.547-2.07-1.44-6.12-0.593-10.6 2.28-16 3.2-4.95 5.95-7.68 11.3-10.2 1.56-0.75 1.56-0.75 3.16-1.52 15.4-6.83 33.5-1.16 47.7 5.85z" fill="#FBFDFD"/>
<path transform="translate(1187 663)" d="m0 0c9.5 3.5 19 8.38 26.6 15.1v2h2c1.73 1.86 1.73 1.86 3.62 4.31 0.947 1.2 0.947 1.2 1.91 2.43 1.46 2.26 1.46 2.26 1.46 5.26-0.833-0.741-1.67-1.48-2.52-2.25-3.45-2.87-7.08-4.86-11.1-6.82-0.699-0.343-1.4-0.686-2.12-1.04-9.7-4.66-18.9-8.84-29.7-5.77-4.26 1.51-7.47 3.8-10.9 6.67-1.63 1.21-1.63 1.21-3.63 1.21-0.29 0.581-0.58 1.16-0.879 1.76-0.691 1.38-1.39 2.76-2.09 4.13-2.18 4.31-4.18 8.65-6.04 13.1-4.05-6.08-3.54-11.8-3-19 1.99-8.86 5.57-13.9 13.2-18.8 7.3-4.41 14.9-4.51 23.2-2.38z" fill="#FBFDFD"/>
<path transform="translate(1153,617)" d="m0 0c1.74 1.52 1.74 1.52 3 3v2c-3.51-0.449-6.55-1.2-9.81-2.5-12.9-4.39-25.3-2.83-37.6 2.53-6.28 3.32-9.95 9.22-12.3 15.8-0.504 3.14-0.436 6.22-0.406 9.39 0.00902 1.26 0.018 2.53 0.0273 3.83 0.0116 0.964 0.0232 1.93 0.0352 2.92-4.79-1.73-4.79-1.73-6.69-4.19-3.82-8.18-5-17.4-2.66-26.3 3.4-7.56 9.75-11.6 17.1-14.8 14.7-5.06 36.6-0.534 49.2 8.24z" fill="#FBFDFD"/>
<path transform="translate(1111 557)" d="m0 0c8 5.36 14 10.5 18.9 18.9-5.85-2.1-11.2-5.28-16.6-8.28-9.27-5-18.7-8.37-29.4-6.72-7.03 2.46-13.1 5.55-17 12-2.06 4.86-3.33 9.76-4 15-2.41-0.958-3.73-1.55-5.08-3.81-2.88-8.64-2.07-15.2 1.64-23.5 2.91-5.44 5.81-8.27 11.4-10.7 0.908-0.433 1.82-0.866 2.75-1.31 13.6-2.88 25.8 1.23 37.4 8.4z" fill="#FBFDFD"/>
<path transform="translate(1197,950)" d="m0 0c-0.619 0.0825-1.24 0.165-1.88 0.25-1.05 0.371-1.05 0.371-2.12 0.75-0.258 0.574-0.516 1.15-0.781 1.74-1.67 3.1-4.19 4.97-6.84 7.2-9 7.9-15.5 17.6-16.8 29.8 0.184 6.29 2.21 13 6.62 17.6 0.908 0.557 1.82 1.11 2.75 1.69 7.71 5.17 7.71 5.17 9 8.88v2.12c-11.3-0.79-23.8-6.19-32-14-1.69-3.38-2.02-6.25-2-10-0.0206-1.24-0.0412-2.48-0.0625-3.75 2.7-14.9 14-27.2 26-35.6 12.6-8.47 12.6-8.47 18.1-6.64z" fill="#FBFDFD"/>
<path transform="translate(1400 529)" d="m0 0c5.98 4.63 10.4 9.32 14.1 15.9-3.32-1.59-6.42-3.46-9.56-5.38-11.7-6.87-24.8-11.5-38.4-8.62-2.91 1.02-5.41 2.32-8 4-0.567 0.361-1.13 0.722-1.72 1.09-4.41 3.2-6.06 6.78-7.28 11.9-0.474 3-0.797 5.97-1 9-1.89-0.258-1.89-0.258-4-1-3.32-5.16-3.4-11.3-2.64-17.2 1.51-6.52 4.9-13 9.64-17.8 16-9.53 35-1.78 48.9 8.07z" fill="#FBFDFD"/>
<path transform="translate(1232 1032)" d="m0 0c0.547 0.224 1.09 0.449 1.66 0.68-2.96 3.06-6.02 5.97-9.19 8.81-1.01 0.907-1.01 0.907-2.04 1.83-1.77 1.36-1.77 1.36-3.77 1.36-0.259 0.571-0.518 1.14-0.785 1.73-1.75 3.26-4.1 5.92-6.46 8.76-4.12 5.91-5.24 11.1-5.13 18.1-0.0116 0.729-0.0232 1.46-0.0352 2.21 0.0258 4.79 0.762 8.1 3.41 12.2 1.77 1.83 1.77 1.83 3.81 3.19 0.7 0.496 1.4 0.993 2.12 1.5 2.23 1.47 2.23 1.47 5.44 2.93 2.95 1.55 3.34 2.43 4.62 5.38-9.93-0.181-21.2-1.32-29.2-7.81-2.05-2.53-3.3-4.95-4.59-7.94-0.44-0.985-0.879-1.97-1.33-2.98-1.86-7.1 0.329-12.6 3.77-18.8 0.362-0.654 0.724-1.31 1.1-1.98 5.83-10.3 23.8-31 36.6-29.2z" fill="#FBFDFD"/>
<path transform="translate(1340,1180)" d="m0 0c-1.25 1.02-1.25 1.02-2.53 2.05-10.6 8.73-20.7 17.1-24.2 30.9-1.04 11-1.04 11 2.75 21.1 2.41 2.24 4.91 4.22 7.55 6.18 3.84 2.86 6.78 5.82 9.45 9.82-11.5-1.95-22.1-4.99-31-13-3.35-4.79-6.06-10.4-5.66-16.3 4-16.1 14.9-27.2 28.7-35.8 11.3-6.75 11.3-6.75 15-4.87z" fill="#FBFDFD"/>
<path transform="translate(1259,955)" d="m0 0c-2.55 2.62-5.06 5.05-7.87 7.4-8.69 7.33-13.5 14.7-17.1 25.6-0.979 11.8-0.979 11.8 4 22 4.11 4.07 8.82 7.42 13.5 10.8 0.496 0.396 0.993 0.791 1.5 1.2v1c-10.7 0.34-18.6-1.01-27-8-4.97-4.84-8.69-9.07-9.25-16.2 0.299-4.59 1.59-7.62 3.69-11.6 0.36-0.7 0.72-1.4 1.09-2.12 6.25-11.7 22.8-31.1 37.5-30.1z" fill="#FBFDFD"/>
<path transform="translate(1280,1173)" d="m0 0c0.33 0.66 0.66 1.32 1 2-1.08 1.96-2.27 3.87-3.5 5.75-10.9 16.7-10.9 16.7-13.1 35.9 1.74 6.86 4.98 12.9 10.9 16.8 5.41 2.88 10.7 4.4 16.7 5.46-0.812 1.94-0.812 1.94-2 4-7.26 2.42-18.1 2.33-25.2-0.688-2.02-1.11-2.02-1.11-3.81-2.31-0.581-0.385-1.16-0.771-1.76-1.17-5.14-3.85-7.17-8.26-8.11-14.5-1.09-15.8 8.62-29.5 17.9-41.4 0.476-0.63 0.951-1.26 1.44-1.91 2.5-3.19 4.98-5.2 8.56-7.09l1-1z" fill="#FBFDFD"/>
<path transform="translate(1296,952)" d="m0 0c-0.33 0.66-0.66 1.32-1 2h-2c-0.33 0.99-0.66 1.98-1 3-1.64 1.58-1.64 1.58-3.69 3.25-8.43 7.22-16.3 16.9-17.6 28.4-0.282 6.62 0.278 11 4.32 16.3 2.98 3.13 6.3 5.68 9.82 8.17 2.43 2.15 3.22 3.85 4.17 6.92-8.6 0.977-16.6-3.05-23.5-8-5.16-4.2-8.47-8.59-10.5-15-0.771-9.1 4.12-17.7 9.79-24.4 5.16-5.85 10.6-11.4 17.2-15.6 0.763-0.482 1.53-0.964 2.31-1.46 4.15-2.47 6.76-3.83 11.7-3.54z" fill="#FBFDFD"/>
<path transform="translate(1455,1054)" d="m0 0c-0.473 0.431-0.946 0.862-1.43 1.31-11.7 10.8-23.5 21.8-24.4 38.7 0.553 7.71 3.64 12.2 9.31 17.2 2.11 1.7 4.26 3.32 6.44 4.94 1.02 0.897 1.02 0.897 2.06 1.81v3c-10.3 0.564-16.8-2.32-24.7-8.87-4.46-4.21-7.98-8.34-8.45-14.6 1.04-14.5 10.4-24.1 20.5-33.7 13.9-11.9 13.9-11.9 20.7-9.81z" fill="#FBFDFD"/>
<path transform="translate(1439,978)" d="m0 0c-0.619 0.0825-1.24 0.165-1.88 0.25-2.28 0.523-2.28 0.523-3 2.57-1.38 2.66-3 3.93-5.32 5.8-4.9 4.22-8.38 8.92-11.8 14.4-0.539 0.842-1.08 1.68-1.63 2.55-3.66 6.56-3.53 15.7-1.77 22.9 1.08 2.63 1.8 4.26 4.4 5.56v2c0.574 0.269 1.15 0.539 1.74 0.816 2.32 1.21 4.34 2.57 6.45 4.12 0.695 0.504 1.39 1.01 2.11 1.53 1.71 1.54 1.71 1.54 2.71 4.54-7.8-0.264-14.2-1.05-21-5-0.712-0.411-1.42-0.822-2.16-1.25-5.7-3.75-8.65-8.33-10.8-14.8-1.38-8.55 2.33-16.2 7.17-23.1 8.04-10 17-17.7 28.8-22.9 2.49-1.25 3.41-0.777 6 0z" fill="#FBFDFD"/>
<path transform="translate(1394,901)" d="m0 0c0.66 0.33 1.32 0.66 2 1-3.82 3.94-7.86 7.55-12 11.1-2.17 1.9-2.17 1.9-3.99 4.87h-2c-0.277 0.71-0.554 1.42-0.84 2.15-1.55 3.8-3.3 7.51-5.04 11.2-2.3 5.39-3.18 10.9-1.54 16.6 2.97 6.85 8.66 11 14.3 15.5 1.39 1.12 2.74 2.29 4.08 3.46v2c-9.3 1.35-16.3-2.24-24-7-4.94-3.73-9.51-8.85-11-15 0.313-5.67 2.07-9.98 4.62-14.9 0.361-0.706 0.722-1.41 1.09-2.14 7.19-13.6 19.6-24 34.3-28.9z" fill="#FBFDFD"/>
<path transform="translate(1193,1098)" d="m0 0c-2.32 3.19-4.76 5.67-7.81 8.12-8.98 7.76-13.8 18.5-15.5 30.2-0.243 5.1 0.594 10.4 3.34 14.7 4.25 3.49 8.78 6.26 14 8v2c0.99 0.33 1.98 0.66 3 1-2.42 2.42-3.11 2.32-6.44 2.38-8.34-0.193-16.3-3.22-22.8-8.47-4.01-4.42-6.52-10-6.95-16 0.914-11.8 10.9-24.2 19.2-31.9 12.9-10.2 12.9-10.2 20-10z" fill="#FBFDFD"/>
<path transform="translate(1363,1075)" d="m0 0-5 5c-0.887 0.928-1.77 1.86-2.69 2.81-2.31 2.19-2.31 2.19-4.31 2.19-0.33 0.99-0.66 1.98-1 3h-2c-0.271 0.583-0.541 1.17-0.82 1.77-1.17 2.22-2.49 4.02-4.05 5.98-5.98 7.84-9.05 15.3-8.12 25.2 2.77 8.6 7.49 13 15 17.5 2.19 1.64 2.98 2.98 3.99 5.49-10.2 0.679-19.1-2.54-27-9-5.36-5.64-6.59-11.1-6.43-18.7 1.38-10.3 8.24-18.2 15.4-25.3 0.7-0.699 1.4-1.4 2.12-2.12 6.19-5.84 15.9-14.8 24.9-13.9z" fill="#FBFDFD"/>
<path transform="translate(1390,1168)" d="m0 0c0.33 0.66 0.66 1.32 1 2-1.33 2.54-2.71 4.98-4.19 7.44-6.42 11.1-11.6 22.2-9.12 35.4 1.8 6.61 5.06 10.6 10.9 14 3.78 1.79 7.75 2.89 11.8 3.96 3.25 1.47 4.11 3.03 5.64 6.19-3.29-0.112-6.58-0.242-9.88-0.375-0.918-0.0309-1.84-0.0619-2.78-0.0938-17.9-0.755-17.9-0.755-24.7-7.5-5.06-6.3-5.05-13-4.2-20.8 2.39-13.7 9.97-26.4 19.6-36.3 1.63-1.05 3.29-2.07 5-3l1-1z" fill="#FBFDFD"/>
<path transform="translate(1477,1126)" d="m0 0c-0.619 0.0825-1.24 0.165-1.88 0.25-1.05 0.371-1.05 0.371-2.12 0.75-0.258 0.563-0.516 1.13-0.781 1.71-1.69 3.18-4.24 5.3-6.84 7.73-7.98 7.75-15 16.6-16.4 28 0.0502 6.59 2.8 12.6 7.02 17.6 2.56 1.87 5.16 3.61 7.86 5.29 2.14 1.71 2.14 1.71 2.95 3.92 0.0657 0.59 0.131 1.18 0.199 1.79-6.76 0.965-11.3-0.676-17.2-3.62-1.03-0.496-1.03-0.496-2.08-1-5.8-3-10.3-7.08-12.7-13.4-1.29-8.39 1.02-16.3 5.54-23.4 1.73-2.3 3.53-4.45 5.46-6.59 0.597-0.666 1.19-1.33 1.81-2.02 19.3-20.3 19.3-20.3 29.2-17z" fill="#FBFDFD"/>
<path transform="translate(1369,978)" d="m0 0c0.66 0.33 1.32 0.66 2 1-0.617 0.473-1.23 0.946-1.87 1.43-9.54 7.45-17.5 14.7-23.1 25.6-0.329 0.629-0.657 1.26-0.996 1.91-3.38 7.11-3.68 13.4-1.21 20.7 2.12 4.21 5.44 6.67 9.2 9.39 1.44 1.04 2.88 2.08 4.31 3.12 0.636 0.436 1.27 0.871 1.93 1.32 2.17 1.92 3.38 4.03 4.76 6.55-11.9-1.95-23.8-4.41-32-14-3.43-5.16-4.76-10.1-3.79-16.2 4.6-16.2 15.6-27.4 29.8-35.8 2.7-1.26 5.36-2.36 8.17-3.34 1.82-0.507 1.82-0.507 2.83-1.66z" fill="#FBFDFD"/>
<path transform="translate(359 1061)" d="m0 0c10.1 5.09 18 12.4 22.3 22.9 0.763 2.43 0.971 4.52 0.645 7.05-4.95-0.434-7.8-3.03-11.5-6.06-13-10.1-30-15.7-46.4-16.5-2.07-0.441-2.07-0.441-4.07-3.44 3.16-3.39 6.72-5.17 10.8-7.25 0.699-0.376 1.4-0.753 2.12-1.14 9.36-4.76 17.4 0.227 26.2 4.42z" fill="#FBFDFD"/>
<path transform="translate(1315,1040)" d="m0 0c-0.959 0.402-0.959 0.402-1.94 0.812-2.39 1.07-2.39 1.07-3.06 4.19-1.57 1.51-1.57 1.51-3.56 3.12-7.21 6.21-12.6 12.5-16.9 20.9-0.351 0.661-0.701 1.32-1.06 2-2.4 4.89-2.97 8.5-2.44 13.9 2.56 7.24 6.35 12.3 13 16 1.39 0.526 1.39 0.526 2.81 1.06 2.74 1.17 3.01 2.29 4.19 4.94-11.7 0.483-18.9-0.546-28.1-8.13-4.66-4.52-5.1-9.15-5.3-15.4 0.327-11.9 7.32-21.1 15.7-29.2 17.1-14.8 17.1-14.8 26.7-14.3z" fill="#FBFDFD"/>
<path transform="translate(996,519)" d="m0 0c10 1.43 15.9 5.98 22.1 13.9 8.91 13 18.2 29.9 15.9 46.1-0.614 1.69-1.27 3.36-2 5-2.31-0.33-4.62-0.66-7-1-0.0864-1-0.173-2.01-0.262-3.04-2.08-21.3-12.2-37.2-26.4-52.8-1.41-1.57-1.41-1.57-3.29-4.13 0.383-2.16 0.383-2.16 1-4z" fill="#FBFDFD"/>
<path transform="translate(1296 1266)" d="m0 0c1.02-0.0102 2.03-0.0203 3.08-0.0308 5.82 0.0688 10.1 0.591 15.2 3.47 4 4.92 4 4.92 4 9-1.67-0.485-1.67-0.485-3.38-0.98-4.9-1.22-9.6-1.36-14.6-1.33-0.921 0.00564-1.84 0.0113-2.79 0.0171-14.4 0.252-27 3.89-40.2 9.3-2 0.792-4 1.58-6 2.38-1.33 0.54-2.67 1.08-4 1.62 0.393-5.37 2.13-9.29 6-13 12.5-8.64 27.9-10.3 42.7-10.4z" fill="#FBFDFD"/>
<path transform="translate(1300 699)" d="m0 0c6.64 3.27 12.1 6.21 14.7 13.3 2.02 1.34 2.02 1.34 4 2l-2 1c-2.07-0.891-2.07-0.891-4.56-2.25-9.05-4.66-17.9-8.08-28.1-4.91-6.23 2.77-9.77 6.4-13.3 12.2-0.619 0.99-1.24 1.98-1.88 3-0.371 0.66-0.743 1.32-1.12 2-0.99-0.66-1.98-1.32-3-2 0.174-8.46 1.52-15.3 7.52-21.6 8.47-7.37 17.7-6.82 27.8-2.74z" fill="#FBFDFD"/>
<path transform="translate(1364 659)" d="m0 0c0.695 0.271 1.39 0.543 2.11 0.823 8.58 3.47 15 6.91 19 15.6-3.88-1.12-7.31-2.64-10.9-4.5-6.53-3.32-12.7-5.19-20.1-4.5-8.82 3.06-13 11.1-17 19l-4-2c-0.823-8.23 1.3-14.2 6-21 7.66-7.57 15.5-7.13 24.9-3.38z" fill="#FBFDFD"/>
<path transform="translate(1530,1042)" d="m0 0v2c-1.54 1.48-1.54 1.48-3.62 3.19-7.57 6.49-13.4 13.2-14.9 23.4 1.15 7.9 5.49 12.9 10.9 18.6 1.61 1.88 1.61 1.88 1.61 3.88-8.32-0.438-16.2-6.33-22-12-2.53-4.18-2.05-7.32-1-12 4.27-11.6 12.1-19.4 23-25 0.763-0.412 1.53-0.825 2.31-1.25 1.69-0.75 1.69-0.75 3.69-0.75z" fill="#FBFDFD"/>
<path transform="translate(1399 606)" d="m0 0c8.26 3.21 15.7 7.92 19.7 16.1-2.44-0.957-4.85-1.93-7.22-3.04-9.39-4.23-19-5.18-28.8-1.96-0.696 0.103-1.39 0.206-2.11 0.312-2.05 0.513-2.05 0.513-2.9 2.51-0.223 0.761-0.446 1.52-0.676 2.3-0.237 0.806-0.474 1.61-0.719 2.44-0.768 3.15-1.25 6.21-1.59 9.43-5.8-3.99-5.8-3.99-6.62-8.19 1.3-7.91 3.59-13.8 10-18.8 5.86-3.91 14.4-2.91 20.9-1.19z" fill="#FBFDFD"/>
<path transform="translate(1512,968)" d="m0 0c-2.02 2.62-4.03 5.03-6.44 7.31-5.73 6.01-9.5 12.8-9.94 21.2 0.149 5.94 3.33 9.26 7 13.6 1.93 2.34 3.12 4.18 4.38 6.88-9.59-0.981-15.2-4.85-21.6-11.9-2.29-5.21-1.38-9.32 0.504-14.6 4.23-9.38 11.3-17.2 20.1-22.6 3.62-1.19 3.62-1.19 6 0z" fill="#FBFDFD"/>
<path transform="translate(1471,918)" d="m0 0c0.66 0.33 1.32 0.66 2 1-0.568 0.51-1.14 1.02-1.72 1.55-6.85 6.45-13.6 14.2-15.5 23.7 0.41 8.19 5.09 13.1 10.6 18.9 1.61 1.88 1.61 1.88 1.61 3.88-8.48-0.706-14.9-4.17-21-10-2.21-2.91-2.55-6.03-2.43-9.67 1.78-9.55 9.71-19.2 17.4-24.8 1.82-1.06 1.82-1.06 5.01-2.56 0.763-0.433 1.53-0.866 2.31-1.31 0.557-0.227 1.11-0.454 1.69-0.688z" fill="#FBFDFD"/>
<path transform="translate(1e3 474)" d="m0 0c5.12 0.595 8.87 1.56 12.4 5.54 5.85 7.75 7.36 16.9 6.65 26.5-0.688 3.81-0.688 3.81-2 7-2.58 1.7-2.58 1.7-5 3-0.098-0.788-0.196-1.58-0.297-2.39-1.7-12.4-5.43-23.5-10.5-34.8-1.17-2.8-1.17-2.8-1.17-4.8z" fill="#FBFDFD"/>
<path transform="translate(1244,1256)" d="m0 0c2.69 2.56 2.69 2.56 4 5v3c-1.42-0.108-1.42-0.108-2.88-0.219-12.7-0.891-25.4-0.886-38.1-0.781-0.33-0.66-0.66-1.32-1-2 10-11.1 25.4-11.6 38-5z" fill="#FBFDFD"/>
</svg>
