<?xml version="1.0" encoding="UTF-8"?>
<!DOCTYPE svg PUBLIC "-//W3C//DTD SVG 1.1//EN" "http://www.w3.org/Graphics/SVG/1.1/DTD/svg11.dtd">
<svg xmlns="http://www.w3.org/2000/svg" version="1.1" width="180px" height="166px" style="shape-rendering:geometricPrecision; text-rendering:geometricPrecision; image-rendering:optimizeQuality; fill-rule:evenodd; clip-rule:evenodd" xmlns:xlink="http://www.w3.org/1999/xlink">
<g><path style="opacity:0.888" fill="#666666" d="M 138.5,7.5 C 139.5,7.5 140.5,7.5 141.5,7.5C 141.5,12.1667 141.5,16.8333 141.5,21.5C 139.888,18.2557 138.888,14.589 138.5,10.5C 135.798,11.7978 135.131,11.1312 136.5,8.5C 136.842,7.66175 137.508,7.32842 138.5,7.5 Z"/></g>
<g><path style="opacity:0.518" fill="#bebebe" d="M 151.5,8.5 C 149.853,10.3264 147.853,11.6597 145.5,12.5C 146.802,10.1782 148.802,8.8449 151.5,8.5 Z"/></g>
<g><path style="opacity:0.152" fill="#d3d3d3" d="M 164.5,25.5 C 164.167,25.5 163.833,25.5 163.5,25.5C 162.167,25.5 160.833,25.5 159.5,25.5C 158.791,24.596 157.791,24.2627 156.5,24.5C 156.5,24.1667 156.5,23.8333 156.5,23.5C 156.5,18.1667 156.5,12.8333 156.5,7.5C 155.5,7.5 154.5,7.5 153.5,7.5C 153.369,6.76109 153.536,6.09442 154,5.5C 155.011,6.33663 156.178,6.66997 157.5,6.5C 157.5,12.1667 157.5,17.8333 157.5,23.5C 160.067,23.7215 162.401,24.3882 164.5,25.5 Z"/></g>
<g><path style="opacity:1" fill="#5e5e5e" d="M 134.5,13.5 C 132.692,14.9179 132.025,16.9179 132.5,19.5C 132.5,19.8333 132.5,20.1667 132.5,20.5C 133.918,22.3079 135.918,22.9746 138.5,22.5C 138.5,66.1667 138.5,109.833 138.5,153.5C 137.209,153.263 136.209,153.596 135.5,154.5C 104.512,157.135 73.5119,157.135 42.5,154.5C 35.4338,152.532 28.1004,151.532 20.5,151.5C 18.0392,150.469 15.3725,149.802 12.5,149.5C 12.5,108.5 12.5,67.5 12.5,26.5C 25.9653,24.4758 39.2986,22.4758 52.5,20.5C 78.0272,17.8579 103.694,17.8579 129.5,20.5C 130.314,18.369 130.814,16.0356 131,13.5C 132.554,11.0728 133.721,11.0728 134.5,13.5 Z M 33.5,27.5 C 33.8333,27.5 34.1667,27.5 34.5,27.5C 34.5,67.5 34.5,107.5 34.5,147.5C 33.5,147.5 32.5,147.5 31.5,147.5C 29.0392,146.469 26.3725,145.802 23.5,145.5C 23.3333,107.165 23.5,68.8319 24,30.5C 27.3126,29.6802 30.4792,28.6802 33.5,27.5 Z M 43.5,148.5 C 42.5416,148.047 41.7083,147.381 41,146.5C 40.5,108.168 40.3333,69.8348 40.5,31.5C 41.3149,30.5707 42.1482,29.5707 43,28.5C 43.5,68.4986 43.6667,108.499 43.5,148.5 Z"/></g>
<g><path style="opacity:0.278" fill="#cecece" d="M 144.5,13.5 C 144.5,16.5 144.5,19.5 144.5,22.5C 143.209,22.7373 142.209,22.404 141.5,21.5C 141.5,16.8333 141.5,12.1667 141.5,7.5C 140.5,7.5 139.5,7.5 138.5,7.5C 139.078,5.55651 140.078,5.22318 141.5,6.5C 142.329,11.4671 142.829,16.4671 143,21.5C 143.183,18.6353 143.683,15.9686 144.5,13.5 Z"/></g>
<g><path style="opacity:0.998" fill="#646464" d="M 153.5,7.5 C 154.5,7.5 155.5,7.5 156.5,7.5C 156.5,12.8333 156.5,18.1667 156.5,23.5C 154.877,19.5764 153.877,15.2431 153.5,10.5C 152.478,10.8555 151.811,11.5222 151.5,12.5C 151.158,13.3382 150.492,13.6716 149.5,13.5C 147.598,16.3373 146.931,19.6707 147.5,23.5C 148.833,23.5 150.167,23.5 151.5,23.5C 152.968,24.7791 153.635,26.4458 153.5,28.5C 149.833,28.5 146.167,28.5 142.5,28.5C 142.5,26.8333 142.5,25.1667 142.5,23.5C 143.5,23.5 144.5,23.5 145.5,23.5C 145.5,19.8333 145.5,16.1667 145.5,12.5C 147.853,11.6597 149.853,10.3264 151.5,8.5C 151.842,7.66175 152.508,7.32842 153.5,7.5 Z M 151.5,12.5 C 153.402,15.3373 154.069,18.6707 153.5,22.5C 151.833,22.5 150.167,22.5 148.5,22.5C 148.264,19.3915 148.597,16.3915 149.5,13.5C 150.492,13.6716 151.158,13.3382 151.5,12.5 Z"/></g>
<g><path style="opacity:0.999" fill="#5c5c5c" d="M 159.5,25.5 C 160.833,25.5 162.167,25.5 163.5,25.5C 164.209,26.404 165.209,26.7373 166.5,26.5C 166.5,67.5 166.5,108.5 166.5,149.5C 164.194,149.993 161.861,150.326 159.5,150.5C 158.167,130.011 157.5,109.178 157.5,88C 157.5,66.8225 158.167,45.9891 159.5,25.5 Z"/></g>
<g><path style="opacity:0.241" fill="#ababab" d="M 52.5,20.5 C 39.2986,22.4758 25.9653,24.4758 12.5,26.5C 12.5,67.5 12.5,108.5 12.5,149.5C 15.3725,149.802 18.0392,150.469 20.5,151.5C 17.4552,151.492 14.4552,151.159 11.5,150.5C 11.5,108.833 11.5,67.1667 11.5,25.5C 25.0367,22.8044 38.7034,21.1377 52.5,20.5 Z"/></g>
<g><path style="opacity:0.607" fill="#878787" d="M 31.5,27.5 C 32.9187,26.5489 34.5853,26.2155 36.5,26.5C 36.8319,67.3368 36.4986,108.003 35.5,148.5C 35.8319,107.997 35.4986,67.6632 34.5,27.5C 34.1667,27.5 33.8333,27.5 33.5,27.5C 32.8333,27.5 32.1667,27.5 31.5,27.5 Z"/></g>
<g><path style="opacity:0.073" fill="#e6e6e6" d="M 141.5,32.5 C 141.5,35.8333 141.5,39.1667 141.5,42.5C 140.833,42.8333 140.167,43.1667 139.5,43.5C 139.5,42.8333 139.5,42.1667 139.5,41.5C 140.167,38.5 140.833,35.5 141.5,32.5 Z"/></g>
<g><path style="opacity:0.613" fill="#a5a5a5" d="M 141.5,42.5 C 141.5,39.1667 141.5,35.8333 141.5,32.5C 145.634,31.5151 149.968,31.1818 154.5,31.5C 154.793,35.4367 154.46,39.27 153.5,43C 149.311,43.8119 145.311,43.6453 141.5,42.5 Z"/></g>
<g><path style="opacity:0.988" fill="#5c5c5c" d="M 142.5,32.5 C 146.167,32.5 149.833,32.5 153.5,32.5C 153.5,35.5 153.5,38.5 153.5,41.5C 149.833,41.5 146.167,41.5 142.5,41.5C 142.5,38.5 142.5,35.5 142.5,32.5 Z"/></g>
<g><path style="opacity:0.379" fill="#afafaf" d="M 163.5,25.5 C 163.833,25.5 164.167,25.5 164.5,25.5C 165.5,25.5 166.5,25.5 167.5,25.5C 167.833,67.172 167.5,108.839 166.5,150.5C 164.253,151.374 161.92,151.708 159.5,151.5C 159.5,151.167 159.5,150.833 159.5,150.5C 161.861,150.326 164.194,149.993 166.5,149.5C 166.5,108.5 166.5,67.5 166.5,26.5C 165.209,26.7373 164.209,26.404 163.5,25.5 Z"/></g>
<g><path style="opacity:0.387" fill="#bfbfbf" d="M 153.5,55.5 C 149.689,56.6453 145.689,56.8119 141.5,56C 140.167,52.3333 140.167,48.6667 141.5,45C 145.821,44.501 150.154,44.3343 154.5,44.5C 154.815,48.3714 154.482,52.0381 153.5,55.5 Z"/></g>
<g><path style="opacity:0.99" fill="#606060" d="M 153.5,55.5 C 149.833,55.5 146.167,55.5 142.5,55.5C 142.5,52.1667 142.5,48.8333 142.5,45.5C 146.167,45.5 149.833,45.5 153.5,45.5C 153.5,48.8333 153.5,52.1667 153.5,55.5 Z"/></g>
<g><path style="opacity:0.57" fill="#ababab" d="M 141.5,57.5 C 145.833,57.5 150.167,57.5 154.5,57.5C 154.823,61.226 154.489,64.8927 153.5,68.5C 152.914,68.7093 152.414,69.0426 152,69.5C 148.32,68.9548 144.654,68.6214 141,68.5C 140.245,64.7446 140.411,61.0779 141.5,57.5 Z"/></g>
<g><path style="opacity:0.997" fill="#5d5d5d" d="M 142.5,58.5 C 146.167,58.5 149.833,58.5 153.5,58.5C 153.5,61.5 153.5,64.5 153.5,67.5C 149.833,67.5 146.167,67.5 142.5,67.5C 142.5,64.5 142.5,61.5 142.5,58.5 Z"/></g>
<g><path style="opacity:0.038" fill="#e2e2e2" d="M 34.5,27.5 C 35.4986,67.6632 35.8319,107.997 35.5,148.5C 33.901,148.768 32.5676,148.434 31.5,147.5C 32.5,147.5 33.5,147.5 34.5,147.5C 34.5,107.5 34.5,67.5 34.5,27.5 Z"/></g>
<g><path style="opacity:0.37" fill="#bfbfbf" d="M 153.5,81.5 C 149.689,82.6453 145.689,82.8119 141.5,82C 140.167,78.3333 140.167,74.6667 141.5,71C 145.821,70.501 150.154,70.3343 154.5,70.5C 154.815,74.3714 154.482,78.0381 153.5,81.5 Z"/></g>
<g><path style="opacity:0.99" fill="#5f5f5f" d="M 153.5,81.5 C 149.833,81.5 146.167,81.5 142.5,81.5C 142.5,78.1667 142.5,74.8333 142.5,71.5C 146.167,71.5 149.833,71.5 153.5,71.5C 153.5,74.8333 153.5,78.1667 153.5,81.5 Z"/></g>
<g><path style="opacity:0.136" fill="#c4c4c4" d="M 43.5,148.5 C 43.6667,108.499 43.5,68.4986 43,28.5C 42.1482,29.5707 41.3149,30.5707 40.5,31.5C 40.1667,28.5 41.5,27.1667 44.5,27.5C 44.8319,68.0034 44.4986,108.337 43.5,148.5 Z"/></g>
<g><path style="opacity:0.592" fill="#858585" d="M 156.5,24.5 C 157.791,24.2627 158.791,24.596 159.5,25.5C 158.167,45.9891 157.5,66.8225 157.5,88C 157.5,109.178 158.167,130.011 159.5,150.5C 159.5,150.833 159.5,151.167 159.5,151.5C 158.5,152.833 157.5,152.833 156.5,151.5C 156.5,109.167 156.5,66.8333 156.5,24.5 Z"/></g>
<g><path style="opacity:0.396" fill="#bdbebe" d="M 153.5,94.5 C 149.649,95.8095 145.649,95.8095 141.5,94.5C 140.197,90.9684 140.197,87.4684 141.5,84C 145.821,83.501 150.154,83.3343 154.5,83.5C 154.815,87.3714 154.482,91.0381 153.5,94.5 Z"/></g>
<g><path style="opacity:0.996" fill="#5f5f5f" d="M 153.5,94.5 C 149.833,94.5 146.167,94.5 142.5,94.5C 142.5,91.1667 142.5,87.8333 142.5,84.5C 146.167,84.5 149.833,84.5 153.5,84.5C 153.5,87.8333 153.5,91.1667 153.5,94.5 Z"/></g>
<g><path style="opacity:1" fill="#f7f451" d="M 129.5,86.5 C 130.5,86.5 131.5,86.5 132.5,86.5C 132.5,90.1667 132.5,93.8333 132.5,97.5C 131.5,97.5 130.5,97.5 129.5,97.5C 129.5,93.8333 129.5,90.1667 129.5,86.5 Z"/></g>
<g><path style="opacity:1" fill="#6d6f2b" d="M 129.5,86.5 C 130.919,85.5489 132.585,85.2155 134.5,85.5C 135.089,89.9707 134.423,93.9707 132.5,97.5C 132.5,93.8333 132.5,90.1667 132.5,86.5C 131.5,86.5 130.5,86.5 129.5,86.5 Z"/></g>
<g><path style="opacity:0.995" fill="#5b5c5b" d="M 142.5,97.5 C 146.167,97.5 149.833,97.5 153.5,97.5C 153.5,100.5 153.5,103.5 153.5,106.5C 149.833,106.5 146.167,106.5 142.5,106.5C 142.5,103.5 142.5,100.5 142.5,97.5 Z"/></g>
<g><path style="opacity:0.182" fill="#c6c6c6" d="M 31.5,27.5 C 32.1667,27.5 32.8333,27.5 33.5,27.5C 30.4792,28.6802 27.3126,29.6802 24,30.5C 23.5,68.8319 23.3333,107.165 23.5,145.5C 26.3725,145.802 29.0392,146.469 31.5,147.5C 28.5525,147.777 25.7191,147.444 23,146.5C 22.5,107.168 22.3333,67.8347 22.5,28.5C 25.5448,28.4921 28.5448,28.1587 31.5,27.5 Z"/></g>
<g><path style="opacity:0.365" fill="#bebebe" d="M 141.5,97.5 C 145.634,96.5151 149.968,96.1818 154.5,96.5C 154.5,100.5 154.5,104.5 154.5,108.5C 149.968,108.818 145.634,108.485 141.5,107.5C 145.702,107.817 149.702,107.483 153.5,106.5C 153.5,103.5 153.5,100.5 153.5,97.5C 149.833,97.5 146.167,97.5 142.5,97.5C 142.167,97.5 141.833,97.5 141.5,97.5 Z"/></g>
<g><path style="opacity:0.764" fill="#9e9e9f" d="M 141.5,97.5 C 141.833,97.5 142.167,97.5 142.5,97.5C 142.5,100.5 142.5,103.5 142.5,106.5C 146.167,106.5 149.833,106.5 153.5,106.5C 149.702,107.483 145.702,107.817 141.5,107.5C 140.167,104.167 140.167,100.833 141.5,97.5 Z"/></g>
<g><path style="opacity:0.975" fill="#5c5c5c" d="M 142.5,110.5 C 146.167,110.5 149.833,110.5 153.5,110.5C 153.5,113.5 153.5,116.5 153.5,119.5C 149.833,119.5 146.167,119.5 142.5,119.5C 142.5,116.5 142.5,113.5 142.5,110.5 Z"/></g>
<g><path style="opacity:0.688" fill="#9d9d9d" d="M 141.5,110.5 C 141.833,110.5 142.167,110.5 142.5,110.5C 142.5,113.5 142.5,116.5 142.5,119.5C 146.167,119.5 149.833,119.5 153.5,119.5C 149.702,120.483 145.702,120.817 141.5,120.5C 140.167,117.167 140.167,113.833 141.5,110.5 Z"/></g>
<g><path style="opacity:0.258" fill="#c1c1c1" d="M 141.5,110.5 C 145.634,109.515 149.968,109.182 154.5,109.5C 154.5,113.5 154.5,117.5 154.5,121.5C 139.833,121.833 139.833,122.167 154.5,122.5C 154.5,126.5 154.5,130.5 154.5,134.5C 149.968,134.818 145.634,134.485 141.5,133.5C 145.702,133.817 149.702,133.483 153.5,132.5C 153.5,129.5 153.5,126.5 153.5,123.5C 149.833,123.5 146.167,123.5 142.5,123.5C 142.167,123.5 141.833,123.5 141.5,123.5C 142.833,122.5 142.833,121.5 141.5,120.5C 145.702,120.817 149.702,120.483 153.5,119.5C 153.5,116.5 153.5,113.5 153.5,110.5C 149.833,110.5 146.167,110.5 142.5,110.5C 142.167,110.5 141.833,110.5 141.5,110.5 Z"/></g>
<g><path style="opacity:0.998" fill="#5c5c5c" d="M 142.5,123.5 C 146.167,123.5 149.833,123.5 153.5,123.5C 153.5,126.5 153.5,129.5 153.5,132.5C 149.833,132.5 146.167,132.5 142.5,132.5C 142.5,129.5 142.5,126.5 142.5,123.5 Z"/></g>
<g><path style="opacity:0.515" fill="#a1a1a1" d="M 136.5,8.5 C 135.131,11.1312 135.798,11.7978 138.5,10.5C 138.888,14.589 139.888,18.2557 141.5,21.5C 142.209,22.404 143.209,22.7373 144.5,22.5C 144.5,19.5 144.5,16.5 144.5,13.5C 144.5,12.8333 144.833,12.5 145.5,12.5C 145.5,16.1667 145.5,19.8333 145.5,23.5C 144.5,23.5 143.5,23.5 142.5,23.5C 142.5,25.1667 142.5,26.8333 142.5,28.5C 146.167,28.5 149.833,28.5 153.5,28.5C 153.635,26.4458 152.968,24.7791 151.5,23.5C 152.492,23.6716 153.158,23.3382 153.5,22.5C 154.069,18.6707 153.402,15.3373 151.5,12.5C 151.811,11.5222 152.478,10.8555 153.5,10.5C 153.877,15.2431 154.877,19.5764 156.5,23.5C 156.5,23.8333 156.5,24.1667 156.5,24.5C 154.952,24.8212 154.285,25.8212 154.5,27.5C 154.586,28.4959 154.252,29.3292 153.5,30C 149.5,30.6667 145.5,30.6667 141.5,30C 140.726,27.595 140.226,25.095 140,22.5C 139.5,28.8246 139.334,35.1579 139.5,41.5C 139.5,42.1667 139.5,42.8333 139.5,43.5C 139.786,80.6408 139.786,117.641 139.5,154.5C 138.167,154.5 136.833,154.5 135.5,154.5C 136.209,153.596 137.209,153.263 138.5,153.5C 138.5,109.833 138.5,66.1667 138.5,22.5C 135.918,22.9746 133.918,22.3079 132.5,20.5C 134.5,20.5 136.5,20.5 138.5,20.5C 138.813,17.7531 138.48,15.0865 137.5,12.5C 136.583,13.1272 135.583,13.4606 134.5,13.5C 133.721,11.0728 132.554,11.0728 131,13.5C 130.814,16.0356 130.314,18.369 129.5,20.5C 127.641,14.2304 129.975,10.2304 136.5,8.5 Z M 151.5,12.5 C 153.402,15.3373 154.069,18.6707 153.5,22.5C 151.833,22.5 150.167,22.5 148.5,22.5C 148.264,19.3915 148.597,16.3915 149.5,13.5C 150.492,13.6716 151.158,13.3382 151.5,12.5 Z M 132.5,20.5 C 132.5,20.1667 132.5,19.8333 132.5,19.5C 133.285,17.6264 133.952,15.6264 134.5,13.5C 135.583,13.4606 136.583,13.1272 137.5,12.5C 138.48,15.0865 138.813,17.7531 138.5,20.5C 136.5,20.5 134.5,20.5 132.5,20.5 Z"/></g>
<g><path style="opacity:0.128" fill="#d3d3d3" d="M 149.5,13.5 C 148.597,16.3915 148.264,19.3915 148.5,22.5C 150.167,22.5 151.833,22.5 153.5,22.5C 153.158,23.3382 152.492,23.6716 151.5,23.5C 150.167,23.5 148.833,23.5 147.5,23.5C 146.931,19.6707 147.598,16.3373 149.5,13.5 Z"/></g>
<g><path style="opacity:0.055" fill="#dedede" d="M 134.5,13.5 C 133.952,15.6264 133.285,17.6264 132.5,19.5C 132.025,16.9179 132.692,14.9179 134.5,13.5 Z"/></g>
<g><path style="opacity:0.752" fill="#a0a0a0" d="M 141.5,123.5 C 141.833,123.5 142.167,123.5 142.5,123.5C 142.5,126.5 142.5,129.5 142.5,132.5C 146.167,132.5 149.833,132.5 153.5,132.5C 149.702,133.483 145.702,133.817 141.5,133.5C 140.167,130.167 140.167,126.833 141.5,123.5 Z"/></g>
<g><path style="opacity:0.078" fill="#dfdfdf" d="M 156.5,24.5 C 156.5,66.8333 156.5,109.167 156.5,151.5C 155.833,110.167 155.167,68.8333 154.5,27.5C 154.285,25.8212 154.952,24.8212 156.5,24.5 Z"/></g>
<g><path style="opacity:0.347" fill="#b7b7b7" d="M 141.5,135.5 C 145.833,135.5 150.167,135.5 154.5,135.5C 154.829,141.206 154.495,146.872 153.5,152.5C 149.833,153.167 146.167,153.833 142.5,154.5C 140.375,148.221 140.042,141.887 141.5,135.5 Z"/></g>
<g><path style="opacity:0.98" fill="#5c5c5c" d="M 142.5,136.5 C 146.167,136.5 149.833,136.5 153.5,136.5C 153.5,141.5 153.5,146.5 153.5,151.5C 149.881,152.244 146.215,152.577 142.5,152.5C 142.5,147.167 142.5,141.833 142.5,136.5 Z"/></g>
<g><path style="opacity:0.624" fill="#a4a4a4" d="M 20.5,151.5 C 28.1004,151.532 35.4338,152.532 42.5,154.5C 34.9527,154.072 27.6194,153.072 20.5,151.5 Z"/></g>
</svg>
